<svg xmlns="http://www.w3.org/2000/svg" xmlns:xlink="http://www.w3.org/1999/xlink" width="122" height="122"><defs><circle id="a" cx="60" cy="60" r="60"/><linearGradient id="c" x1="0%" y1="50%" y2="50%"><stop offset="0%" stop-color="#5B79A2"/><stop offset="100%" stop-color="#2E4469"/></linearGradient><linearGradient id="d" x1="0%" x2="177.512%" y1="40.273%" y2="73.943%"><stop offset="0%" stop-color="#48F0CC"/><stop offset="100%" stop-color="#1AAB8B" stop-opacity="0"/></linearGradient><linearGradient id="e" x1="13.61%" x2="77.536%" y1="-15.525%" y2="100%"><stop offset="0%" stop-color="#80A4D5"/><stop offset="100%" stop-color="#2E4469"/></linearGradient><linearGradient id="f" x1="88.509%" x2="-65.199%" y1="28.054%" y2="176.414%"><stop offset="0%" stop-color="#6EDCC4"/><stop offset="100%" stop-color="#1AAB8B" stop-opacity="0"/></linearGradient><linearGradient id="g" x1="50%" x2="50%" y1="11.35%" y2="111.35%"><stop offset="0%" stop-color="#6EDCC4"/><stop offset="100%" stop-color="#1AAB8B"/></linearGradient><filter id="h" width="220.4%" height="220.4%" x="-60.2%" y="-60.2%" filterUnits="objectBoundingBox"><feGaussianBlur in="SourceGraphic" stdDeviation="2"/></filter><linearGradient id="i" x1="100%" x2="0%" y1="50%" y2="50%"><stop offset="0%" stop-color="#5B79A2"/><stop offset="100%" stop-color="#2E4469"/></linearGradient><radialGradient id="j" cx="52.101%" cy="30.594%" r="121.252%" fx="52.101%" fy="30.594%" gradientTransform="matrix(-.40243 0 0 -.12688 .73 .345)"><stop offset="0%"/><stop offset="100%" stop-opacity=".002"/></radialGradient><radialGradient id="k" cx="52.101%" cy="30.594%" r="256.929%" fx="52.101%" fy="30.594%" gradientTransform="matrix(-.18992 0 0 -.12688 .62 .345)"><stop offset="0%"/><stop offset="100%" stop-opacity=".002"/></radialGradient><radialGradient id="l" cx="52.101%" cy="30.594%" r="262.279%" fx="52.101%" fy="30.594%" gradientTransform="matrix(-.18605 0 0 -.12688 .618 .345)"><stop offset="0%"/><stop offset="100%" stop-opacity=".002"/></radialGradient><linearGradient id="m" x1="108.116%" x2="8.255%" y1="-19.794%" y2="100%"><stop offset="0%" stop-color="#48F0CC" stop-opacity=".607"/><stop offset="100%" stop-color="#1AAB8B" stop-opacity="0"/></linearGradient><linearGradient id="n" x1="2.515%" x2="35.849%" y1="100%" y2="11.264%"><stop offset="0%" stop-color="#48F0CC"/><stop offset="100%" stop-color="#1AAB8B" stop-opacity=".267"/></linearGradient><linearGradient id="o" x1="15.236%" x2="94.911%" y1="6.048%" y2="86.068%"><stop offset="0%" stop-color="#48F0CC"/><stop offset="100%" stop-color="#1AAB8B"/></linearGradient><circle id="p" cx="60" cy="60" r="60"/></defs><g fill="none" fill-rule="evenodd" transform="translate(1 1)"><mask id="b" fill="#fff"><use xlink:href="#a"/></mask><use fill="#000" fill-opacity=".152" xlink:href="#a"/><rect width="120" height="120" fill="#000" fill-opacity=".152" mask="url(#b)" rx="1.4"/><g fill-rule="nonzero" mask="url(#b)"><g transform="rotate(118 13.067 50.794)"><ellipse cx="6.93" cy="6.55" fill="url(#c)" rx="6.324" ry="6.331"/><ellipse cx="6.93" cy="6.55" stroke="url(#d)" stroke-width=".65" rx="5.999" ry="6.006"/><ellipse cx="7.184" cy="6.138" fill="#4FCAAF" stroke="#2E4469" rx="3.162" ry="3.165"/><ellipse cx="7.184" cy="6.138" stroke="url(#e)" stroke-width=".65" rx="2.837" ry="2.84"/></g></g><g mask="url(#b)"><path stroke="url(#f)" stroke-linejoin="round" stroke-width="2" d="M55.34.044l-14.266 38.23-37.14-1.867 24.935 32.427" transform="rotate(-29 18.623 -4.931)"/><g transform="rotate(-29 67.29 -95.899)"><circle cx="3" cy="3" r="3" fill="url(#g)"/><path fill="#FFF" fill-opacity=".2" d="M1.111 5A2.778 2.778 0 1 1 5 1.111 2.778 2.778 0 0 0 1.111 5z"/></g><g transform="rotate(-29 82.401 -22.025)"><circle cx="3.5" cy="3.5" r="3.5" fill="url(#g)"/><path fill="#FFF" fill-opacity=".2" d="M1.333 6A3.333 3.333 0 1 1 6 1.333 3.333 3.333 0 0 0 1.333 6z"/></g><g transform="rotate(-29 129.324 -81.165)"><circle cx="5.5" cy="5.5" r="4.984" fill="url(#g)" filter="url(#h)"/><circle cx="5.5" cy="5.5" r="2.063" fill="url(#g)"/><path fill="#FFF" fill-opacity=".2" d="M4.223 6.973a1.964 1.964 0 1 1 2.75-2.75 1.964 1.964 0 0 0-2.75 2.75z"/></g></g><g mask="url(#b)"><g fill-rule="nonzero"><path fill="url(#i)" d="M22.143 38.724H6.333A3.164 3.164 0 0 1 3.17 35.56V10.237h22.135v25.322a3.164 3.164 0 0 1-3.162 3.165z" transform="scale(-1 1) rotate(-82 34.022 58.95)"/><path stroke="url(#e)" stroke-width=".65" d="M24.98 10.562H3.495v24.997c0 1.569 1.27 2.84 2.837 2.84h15.81a2.839 2.839 0 0 0 2.838-2.84V10.562z" transform="scale(-1 1) rotate(-82 34.022 58.95)"/><path fill="#25395B" d="M-4.09 81.11l21.942-3.085.66 4.698-25.076 3.524a3.164 3.164 0 0 1-3.575-2.691l-2.2-15.657a3.164 3.164 0 0 1 2.694-3.572l1.98 14.091A3.164 3.164 0 0 0-4.09 81.11z"/><path fill="url(#c)" d="M1.932 17.722l25.297-5.627a1.582 1.582 0 0 0 1.238-1.545V2.323c0-.874-.708-1.582-1.58-1.582H1.588A1.579 1.579 0 0 0 .01 2.323v13.854c0 1.012.936 1.764 1.923 1.545z" transform="scale(-1 1) rotate(-82 34.022 58.95)"/><path stroke="url(#e)" stroke-width=".65" d="M1.862 17.405l25.297-5.628c.574-.127.983-.638.983-1.227V2.323c0-.694-.562-1.257-1.256-1.257H1.59c-.693 0-1.256.563-1.256 1.257v13.854c0 .804.744 1.402 1.529 1.228z" transform="scale(-1 1) rotate(-82 34.022 58.95)"/><path fill="#25395B" d="M15.625 75.703c-.24 3.025 2.386 5.493 5.394 5.07l6.676-.938.44 3.132a1.582 1.582 0 0 1-1.347 1.786L13.07 86.68a1.581 1.581 0 0 1-1.797-1.69l2.052-25.834a1.582 1.582 0 0 1 1.357-1.442l2.4-.337-1.456 18.325z"/></g><g transform="translate(-4 16.973)"><ellipse cx="21.348" cy="72.684" fill="url(#j)" opacity=".298" rx="21.202" ry="8.532" transform="rotate(1 21.348 72.684)"/><ellipse cx="94.208" cy="72.684" fill="url(#j)" opacity=".298" rx="21.202" ry="8.532" transform="rotate(1 94.208 72.684)"/><g fill-rule="nonzero"><path fill="url(#c)" d="M22.143 38.724H6.333A3.164 3.164 0 0 1 3.17 35.56V10.237h22.135v25.322a3.164 3.164 0 0 1-3.162 3.165z" transform="matrix(1 0 0 -1 105.065 68.973)"/><path stroke="url(#e)" stroke-width=".65" d="M24.98 10.562H3.495v24.997c0 1.569 1.27 2.84 2.837 2.84h15.81a2.839 2.839 0 0 0 2.838-2.84V10.562z" transform="matrix(1 0 0 -1 105.065 68.973)"/><path fill="#25395B" d="M112.978 36.58v22.156h-4.743V33.414a3.164 3.164 0 0 1 3.162-3.165h15.81a3.164 3.164 0 0 1 3.163 3.165h-14.23a3.164 3.164 0 0 0-3.162 3.165z"/><path fill="url(#c)" d="M1.932 17.722l25.297-5.627a1.582 1.582 0 0 0 1.238-1.545V2.323c0-.874-.708-1.582-1.58-1.582H1.588A1.579 1.579 0 0 0 .01 2.323v13.854c0 1.012.936 1.764 1.923 1.545z" transform="matrix(1 0 0 -1 105.065 68.973)"/><path stroke="url(#e)" stroke-width=".65" d="M1.862 17.405l25.297-5.628c.574-.127.983-.638.983-1.227V2.323c0-.694-.562-1.257-1.256-1.257H1.59c-.693 0-1.256.563-1.256 1.257v13.854c0 .804.744 1.402 1.529 1.228z" transform="matrix(1 0 0 -1 105.065 68.973)"/><path fill="#25395B" d="M115.588 56.855c-2.962-.659-5.772 1.598-5.772 4.635v6.743h-3.162a1.582 1.582 0 0 1-1.581-1.583V52.796c0-1.012.936-1.764 1.924-1.545l25.296 5.628c.724.16 1.239.803 1.239 1.545v2.423l-17.944-3.992z"/></g><ellipse cx="66.459" cy="78.72" fill="url(#k)" opacity=".298" rx="53.279" ry="10.119" transform="rotate(1 66.459 78.72)"/><ellipse cx="46.5" cy="86" fill="url(#l)" opacity=".298" rx="21.5" ry="4" transform="rotate(1 46.5 86)"/><g fill-rule="nonzero"><path fill="url(#c)" d="M.872.949h31.622V7.28H.872z" transform="translate(29.022 77)"/><path stroke="url(#e)" stroke-width=".65" d="M24.263 1.273H9.103v1.258A1.907 1.907 0 0 1 7.196 4.44H1.197v2.515h30.971V4.44H26.17a1.907 1.907 0 0 1-1.906-1.908V1.273z" transform="translate(29.022 77)"/></g><g fill-rule="nonzero"><path fill="url(#c)" d="M.385.539h50.594V19.53H.385z" transform="translate(21.022 55)"/><path fill="#25395B" d="M21.407 57.122H72v3.165H21.407z"/></g><g fill-rule="nonzero"><path fill="url(#c)" d="M41.107 12.661H3.162A3.164 3.164 0 0 1 0 9.496v-6.33A3.164 3.164 0 0 1 3.162 0h37.945a3.164 3.164 0 0 1 3.162 3.165v6.331a3.164 3.164 0 0 1-3.162 3.165z" transform="translate(9.022 43)"/><path stroke="url(#m)" stroke-width=".65" d="M41.107 12.336a2.839 2.839 0 0 0 2.837-2.84v-6.33c0-1.57-1.27-2.841-2.837-2.841H3.162a2.839 2.839 0 0 0-2.837 2.84v6.331c0 1.569 1.27 2.84 2.837 2.84h37.945z" transform="translate(9.022 43)"/><path fill="#25395B" d="M47.508 50.165h-7.905a1.581 1.581 0 0 1-1.581-1.582c0-.874.707-1.583 1.58-1.583h7.906c.874 0 1.58.709 1.58 1.583s-.706 1.582-1.58 1.582zm-26 0h-7.905a1.581 1.581 0 0 1-1.581-1.582c0-.874.707-1.583 1.58-1.583h7.906c.874 0 1.58.709 1.58 1.583s-.706 1.582-1.58 1.582z"/></g><g fill-rule="nonzero"><path fill="url(#c)" d="M16 0h22.135v9.496H16z" transform="rotate(40 20.775 123.346)"/><path stroke="url(#e)" stroke-width=".65" d="M16.325.325H37.81v8.846H16.325z" transform="rotate(40 20.775 123.346)"/><path fill="url(#c)" d="M53.756 26.992H0l2.502-15.025A4.745 4.745 0 0 1 7.18 8h39.396a4.745 4.745 0 0 1 4.678 3.967l2.502 15.025z" transform="rotate(40 20.775 123.346)"/><path stroke="url(#n)" stroke-width=".65" d="M53.372 26.667L50.934 12.02a4.42 4.42 0 0 0-4.358-3.696H7.18a4.42 4.42 0 0 0-4.358 3.696L.384 26.667h52.988z" transform="rotate(40 20.775 123.346)"/><path fill="#25395B" d="M89.702 38.441l-1.776 3.645a3.163 3.163 0 0 0 .809 3.808l5.907 4.956a3.163 3.163 0 0 0 3.89.136l3.281-2.382-12.111-10.163z"/><path stroke="url(#e)" stroke-width=".65" d="M19.416 14.325l.882 3.53a2.838 2.838 0 0 0 2.752 2.15h7.71a2.838 2.838 0 0 0 2.753-2.15l.882-3.53H19.416z" transform="rotate(40 20.775 123.346)"/><path fill="#25395B" d="M84.421 26.178a4.745 4.745 0 0 0-6.134.032l-1.82 1.557 37.949 31.844 1.217-2.064a4.745 4.745 0 0 0-1.033-6.046L84.42 26.178z"/><path stroke="url(#e)" stroke-width=".65" d="M2.384 14.006h48.772l-.33-1.985a4.42 4.42 0 0 0-4.359-3.696H7.072a4.42 4.42 0 0 0-4.358 3.696l-.33 1.985z" transform="rotate(40 20.775 123.346)"/></g></g></g><use stroke="url(#o)" stroke-width="2" xlink:href="#p"/></g></svg>