<svg xmlns="http://www.w3.org/2000/svg" xmlns:xlink="http://www.w3.org/1999/xlink" width="123" height="122"><defs><circle id="a" cx="60" cy="60" r="60"/><linearGradient id="b" x1="15.236%" x2="94.911%" y1="6.048%" y2="86.068%"><stop offset="0%" stop-color="#48F0CC" stop-opacity="0"/><stop offset="100%" stop-color="#1AAB8B"/></linearGradient><linearGradient id="d" x1="100%" x2="0%" y1="50%" y2="50%"><stop offset="0%" stop-color="#5B79A2"/><stop offset="100%" stop-color="#2E4469"/></linearGradient><linearGradient id="e" x1="13.61%" x2="77.536%" y1="-15.525%" y2="100%"><stop offset="0%" stop-color="#80A4D5"/><stop offset="100%" stop-color="#2E4469"/></linearGradient><linearGradient id="f" x1="0%" y1="50%" y2="50%"><stop offset="0%" stop-color="#5B79A2"/><stop offset="100%" stop-color="#2E4469"/></linearGradient><radialGradient id="g" cx="52.101%" cy="30.594%" r="121.252%" fx="52.101%" fy="30.594%" gradientTransform="matrix(-.40243 0 0 -.12688 .73 .345)"><stop offset="0%"/><stop offset="100%" stop-opacity=".002"/></radialGradient><radialGradient id="h" cx="52.101%" cy="30.594%" r="256.929%" fx="52.101%" fy="30.594%" gradientTransform="matrix(-.18992 0 0 -.12688 .62 .345)"><stop offset="0%"/><stop offset="100%" stop-opacity=".002"/></radialGradient><linearGradient id="i" x1="15.236%" x2="94.911%" y1="6.048%" y2="86.068%"><stop offset="0%" stop-color="#48F0CC"/><stop offset="100%" stop-color="#1AAB8B" stop-opacity=".155"/></linearGradient><linearGradient id="j" x1="13.61%" x2="75.556%" y1="-15.525%" y2="96.421%"><stop offset="0%" stop-color="#80A4D5"/><stop offset="100%" stop-color="#75A0E9"/></linearGradient><linearGradient id="k" x1="88.509%" x2="-65.199%" y1="28.054%" y2="176.414%"><stop offset="0%" stop-color="#6EDCC4"/><stop offset="100%" stop-color="#1AAB8B" stop-opacity="0"/></linearGradient><linearGradient id="l" x1="50%" x2="50%" y1="11.35%" y2="111.35%"><stop offset="0%" stop-color="#6EDCC4"/><stop offset="100%" stop-color="#1AAB8B"/></linearGradient><filter id="m" width="184.3%" height="184.3%" x="-42.1%" y="-42.1%" filterUnits="objectBoundingBox"><feGaussianBlur in="SourceGraphic" stdDeviation="1.4"/></filter><linearGradient id="n" x1="15.236%" x2="94.911%" y1="6.048%" y2="86.068%"><stop offset="0%" stop-color="#48F0CC"/><stop offset="100%" stop-color="#1AAB8B"/></linearGradient><circle id="o" cx="60" cy="60" r="60"/><filter id="p" width="120.4%" height="126.5%" x="-10.2%" y="-13.3%" filterUnits="objectBoundingBox"><feGaussianBlur in="SourceGraphic" stdDeviation="2"/></filter></defs><g fill="none" fill-rule="evenodd" transform="translate(2 1)"><mask id="c" fill="#fff"><use xlink:href="#a"/></mask><use fill="#000" fill-opacity=".152" xlink:href="#a"/><rect width="120" height="120" fill="url(#b)" mask="url(#c)" rx="1.4"/><g mask="url(#c)"><g fill-rule="nonzero"><path fill="url(#d)" d="M22.143 38.724H6.333A3.164 3.164 0 0 1 3.17 35.56V10.237h22.135v25.322a3.164 3.164 0 0 1-3.162 3.165z" transform="scale(-1 1) rotate(-82 23.022 71.605)"/><path stroke="url(#e)" stroke-width=".65" d="M24.98 10.562H3.495v24.997c0 1.569 1.27 2.84 2.837 2.84h15.81a2.839 2.839 0 0 0 2.838-2.84V10.562z" transform="scale(-1 1) rotate(-82 23.022 71.605)"/><path fill="#25395B" d="M17.91 81.11l21.942-3.085.66 4.698-25.076 3.524a3.164 3.164 0 0 1-3.575-2.691l-2.2-15.657a3.164 3.164 0 0 1 2.694-3.572l1.98 14.091a3.164 3.164 0 0 0 3.575 2.691z"/><path fill="url(#f)" d="M1.932 17.722l25.297-5.627a1.582 1.582 0 0 0 1.238-1.545V2.323c0-.874-.708-1.582-1.58-1.582H1.588A1.579 1.579 0 0 0 .01 2.323v13.854c0 1.012.936 1.764 1.923 1.545z" transform="scale(-1 1) rotate(-82 23.022 71.605)"/><path stroke="url(#e)" stroke-width=".65" d="M1.862 17.405l25.297-5.628c.574-.127.983-.638.983-1.227V2.323c0-.694-.562-1.257-1.256-1.257H1.59c-.693 0-1.256.563-1.256 1.257v13.854c0 .804.744 1.402 1.529 1.228z" transform="scale(-1 1) rotate(-82 23.022 71.605)"/><path fill="#25395B" d="M37.625 75.703c-.24 3.025 2.386 5.493 5.394 5.07l6.676-.938.44 3.132a1.582 1.582 0 0 1-1.347 1.786L35.07 86.68a1.581 1.581 0 0 1-1.797-1.69l2.052-25.834a1.582 1.582 0 0 1 1.357-1.442l2.4-.337-1.456 18.325z"/></g><g transform="translate(-4 25.973)"><ellipse cx="21.348" cy="63.684" fill="url(#g)" opacity=".298" rx="21.202" ry="8.532" transform="rotate(1 21.348 63.684)"/><ellipse cx="94.208" cy="63.684" fill="url(#g)" opacity=".298" rx="21.202" ry="8.532" transform="rotate(1 94.208 63.684)"/><g fill-rule="nonzero"><path fill="url(#f)" d="M22.143 38.724H6.333A3.164 3.164 0 0 1 3.17 35.56V10.237h22.135v25.322a3.164 3.164 0 0 1-3.162 3.165z" transform="matrix(1 0 0 -1 78.065 59.973)"/><path stroke="url(#e)" stroke-width=".65" d="M24.98 10.562H3.495v24.997c0 1.569 1.27 2.84 2.837 2.84h15.81a2.839 2.839 0 0 0 2.838-2.84V10.562z" transform="matrix(1 0 0 -1 78.065 59.973)"/><path fill="#25395B" d="M85.978 27.58v22.156h-4.743V24.414a3.164 3.164 0 0 1 3.162-3.165h15.81a3.164 3.164 0 0 1 3.163 3.165H89.14a3.164 3.164 0 0 0-3.162 3.165z"/><path fill="url(#f)" d="M1.932 17.722l25.297-5.627a1.582 1.582 0 0 0 1.238-1.545V2.323c0-.874-.708-1.582-1.58-1.582H1.588A1.579 1.579 0 0 0 .01 2.323v13.854c0 1.012.936 1.764 1.923 1.545z" transform="matrix(1 0 0 -1 78.065 59.973)"/><path stroke="url(#e)" stroke-width=".65" d="M1.862 17.405l25.297-5.628c.574-.127.983-.638.983-1.227V2.323c0-.694-.562-1.257-1.256-1.257H1.59c-.693 0-1.256.563-1.256 1.257v13.854c0 .804.744 1.402 1.529 1.228z" transform="matrix(1 0 0 -1 78.065 59.973)"/><path fill="#25395B" d="M88.588 47.855c-2.962-.659-5.772 1.598-5.772 4.635v6.743h-3.162a1.582 1.582 0 0 1-1.581-1.583V43.796c0-1.012.936-1.764 1.924-1.545l25.296 5.628c.724.16 1.239.803 1.239 1.545v2.423l-17.944-3.992z"/></g><ellipse cx="66.459" cy="69.72" fill="url(#h)" opacity=".298" rx="53.279" ry="10.119" transform="rotate(1 66.459 69.72)"/><g transform="translate(26.022)"><path fill="url(#f)" fill-rule="nonzero" d="M14.385 41.539h50.594V60.53H14.385z"/><path fill="url(#f)" fill-rule="nonzero" d="M14.385 41.539h50.594V60.53H14.385z"/><path fill="#25395B" fill-rule="nonzero" d="M14.385 43.122h50.594v3.165H14.385z"/><path fill="url(#f)" fill-rule="nonzero" d="M28.614 16.218h22.135v9.496H28.614z"/><path stroke="url(#e)" stroke-width=".65" d="M28.939 16.543h21.485v8.846H28.939z"/><path fill="url(#f)" fill-rule="nonzero" d="M66.56 43.122H12.806l2.501-15.025a4.745 4.745 0 0 1 4.68-3.967H59.38a4.745 4.745 0 0 1 4.68 3.967l2.5 15.025z"/><path stroke="url(#e)" stroke-width=".65" d="M66.177 42.797L63.74 28.151a4.42 4.42 0 0 0-4.359-3.696H19.985a4.42 4.42 0 0 0-4.358 3.696l-2.439 14.646h52.99z"/><path fill="url(#f)" fill-rule="nonzero" d="M23.872 58.949h31.622v6.331H23.872z"/><g fill-rule="nonzero"><path fill="url(#f)" d="M24.765 2.134V.55H8.955v1.583c0 .874-.708 1.582-1.582 1.582H1.05v3.166h31.62V3.716h-6.324a1.582 1.582 0 0 1-1.581-1.582z" transform="translate(22.823 58.398)"/><path stroke="url(#e)" stroke-width=".65" d="M24.44.876H9.28v1.258A1.907 1.907 0 0 1 7.373 4.04H1.374v2.516h30.971V4.04h-5.999a1.907 1.907 0 0 1-1.906-1.907V.876z" transform="translate(22.823 58.398)"/></g><path fill="url(#f)" fill-rule="nonzero" d="M58.655 17.8H20.71a3.164 3.164 0 0 1-3.162-3.166v-6.33a3.164 3.164 0 0 1 3.162-3.166h37.945a3.164 3.164 0 0 1 3.162 3.165v6.331a3.164 3.164 0 0 1-3.162 3.165z"/><path stroke="url(#e)" stroke-width=".65" d="M58.655 17.474a2.839 2.839 0 0 0 2.837-2.84v-6.33c0-1.57-1.27-2.84-2.837-2.84H20.71a2.839 2.839 0 0 0-2.837 2.84v6.33c0 1.569 1.27 2.84 2.837 2.84h37.945z"/><g fill-rule="nonzero" transform="translate(32.584 .247)"><ellipse cx="6.324" cy="6.331" fill="url(#f)" rx="6.324" ry="6.331"/><ellipse cx="6.324" cy="6.331" stroke="url(#i)" stroke-width=".65" rx="5.999" ry="6.006"/></g><path fill="#25395B" fill-rule="nonzero" d="M56.325 12.544H48.42a1.581 1.581 0 0 1-1.581-1.583c0-.874.707-1.583 1.58-1.583h7.906c.874 0 1.581.709 1.581 1.583s-.707 1.583-1.581 1.583zm-26.021 0h-7.906a1.581 1.581 0 0 1-1.58-1.583 1.58 1.58 0 0 1 1.58-1.583h7.906c.874 0 1.58.709 1.58 1.583s-.706 1.583-1.58 1.583zm1.474 17.916l.982 3.934a3.163 3.163 0 0 0 3.068 2.397h7.71a3.163 3.163 0 0 0 3.068-2.397l.982-3.933h-15.81z"/><path stroke="url(#e)" stroke-width=".65" d="M32.194 30.786l.881 3.529a2.838 2.838 0 0 0 2.753 2.151h7.71a2.838 2.838 0 0 0 2.753-2.151l.881-3.53H32.194z"/><ellipse cx="38.942" cy="6.706" fill="url(#j)" fill-rule="nonzero" rx="3.162" ry="3.165"/><ellipse cx="38.942" cy="6.706" stroke="url(#e)" stroke-width=".65" rx="2.837" ry="2.84"/><path fill="#25395B" fill-rule="nonzero" d="M19.985 24.13a4.745 4.745 0 0 0-4.679 3.968l-.393 2.363h49.54l-.394-2.363a4.745 4.745 0 0 0-4.679-3.968H19.985z"/><path stroke="url(#e)" stroke-width=".65" d="M15.297 30.136h48.772l-.33-1.985a4.42 4.42 0 0 0-4.359-3.696H19.985a4.42 4.42 0 0 0-4.358 3.696l-.33 1.985z"/></g></g></g><g mask="url(#c)"><path stroke="url(#k)" stroke-linejoin="round" stroke-width="2" d="M55.34.044l-14.266 38.23-37.14-1.867 11.099 38.18" transform="rotate(122 49.04 66.044)"/><g transform="rotate(122 20.34 59.076)"><circle cx="3" cy="3" r="3" fill="url(#l)"/><path fill="#FFF" fill-opacity=".2" d="M1.111 5A2.778 2.778 0 1 1 5 1.111 2.778 2.778 0 0 0 1.111 5z"/></g><g transform="rotate(122 39.731 49.593)"><circle cx="3.5" cy="3.5" r="3.5" fill="url(#l)"/><path fill="#FFF" fill-opacity=".2" d="M1.333 6A3.333 3.333 0 1 1 6 1.333 3.333 3.333 0 0 0 1.333 6z"/></g><g transform="rotate(122 25.694 34.538)"><circle cx="5.5" cy="5.5" r="4.984" fill="#5984C6" filter="url(#m)"/><circle cx="5.5" cy="5.5" r="2.063" fill="url(#l)"/><path fill="#FFF" fill-opacity=".2" d="M4.223 6.973a1.964 1.964 0 1 1 2.75-2.75 1.964 1.964 0 0 0-2.75 2.75z"/></g></g><use stroke="url(#n)" stroke-width="2" xlink:href="#o"/><path fill="url(#l)" d="M60.131 20.379L42.971.725H1.415v45.243h41.558z" filter="url(#p)" opacity=".433" transform="translate(1.204 12)"/><g transform="translate(1.204 12)"><rect width="42.935" height="46.703" stroke="#1EF0C2" rx="2.6"/><rect width="36.43" height="1.297" x="2.602" y="2.595" fill="#1EF0C2" rx=".649"/><rect width="36.43" height="1.297" x="2.602" y="18.162" fill="#1EF0C2" rx=".649"/><rect width="20.817" height="1.297" x="2.602" y="7.784" fill="#1EF0C2" rx=".649"/><rect width="20.817" height="1.297" x="2.602" y="23.351" fill="#1EF0C2" rx=".649"/><rect width="20.817" height="1.297" x="2.602" y="12.973" fill="#1EF0C2" rx=".649"/><rect width="20.817" height="1.297" x="2.602" y="28.541" fill="#1EF0C2" rx=".649"/><rect width="28.624" height="1.297" x="2.602" y="5.189" fill="#1EF0C2" rx=".649"/><rect width="28.624" height="1.297" x="2.602" y="20.757" fill="#1EF0C2" rx=".649"/><rect width="36.43" height="1.297" x="2.602" y="10.378" fill="#1EF0C2" rx=".649"/><rect width="36.43" height="1.297" x="2.602" y="25.946" fill="#1EF0C2" rx=".649"/><rect width="32.527" height="1.297" x="2.602" y="15.568" fill="#1EF0C2" rx=".649"/><rect width="32.527" height="1.297" x="2.602" y="31.135" fill="#1EF0C2" rx=".649"/></g></g></svg>