<svg xmlns="http://www.w3.org/2000/svg" xmlns:xlink="http://www.w3.org/1999/xlink" width="122" height="122">
  <defs>
    <linearGradient id="b" x1="0%" y1="50%" y2="50%">
      <stop offset="0%" stop-color="#5B79A2"/>
      <stop offset="100%" stop-color="#2E4469"/>
    </linearGradient>
    <circle id="a" cx="60" cy="60" r="60"/>
    <linearGradient id="d" x1="126.502%" x2="45.352%" y1="55.144%" y2="55.144%">
      <stop offset="0%" stop-color="#80A4D5"/>
      <stop offset="100%" stop-color="#2E4469"/>
    </linearGradient>
    <linearGradient id="e" x1="100%" x2="0%" y1="50%" y2="50%">
      <stop offset="0%" stop-color="#5B79A2"/>
      <stop offset="100%" stop-color="#2E4469"/>
    </linearGradient>
    <linearGradient id="f" x1="45.117%" x2="0%" y1="168.048%" y2="5.569%">
      <stop offset="0%" stop-color="#C4D6EB" stop-opacity=".676"/>
      <stop offset="100%" stop-color="#91ACD2" stop-opacity=".3"/>
    </linearGradient>
    <linearGradient id="g" x1="55.452%" x2="8.134%" y1="41.77%" y2="-5.162%">
      <stop offset="0%" stop-color="#FFE474" stop-opacity=".131"/>
      <stop offset="100%" stop-color="#FFC540"/>
    </linearGradient>
    <linearGradient id="h" x1="356.292%" x2="0%" y1="-38.36%" y2="89.849%">
      <stop offset="0%" stop-color="#FFE474" stop-opacity=".131"/>
      <stop offset="100%" stop-color="#FFC540"/>
    </linearGradient>
    <filter id="i" width="182.8%" height="182.8%" x="-41.4%" y="-41.4%" filterUnits="objectBoundingBox">
      <feGaussianBlur in="SourceGraphic" stdDeviation="2"/>
    </filter>
    <linearGradient id="j" x1="88.081%" x2="26.195%" y1="89.849%" y2="4.032%">
      <stop offset="0%" stop-color="#FFE474" stop-opacity=".131"/>
      <stop offset="100%" stop-color="#FFC540"/>
    </linearGradient>
    <circle id="k" cx="60" cy="60" r="60"/>
    <path id="l" d="M76.956 3.35C49.92 8.045 29.362 31.622 29.362 60s20.558 51.955 47.594 56.65c-3.218.559-6.528.85-9.906.85-31.756 0-57.5-25.744-57.5-57.5S35.294 2.5 67.05 2.5c3.378 0 6.688.291 9.906.85z"/>
    <linearGradient id="m" x1="14.488%" y1="46.329%" y2="46.329%">
      <stop offset="0%" stop-color="#80A4D5"/>
      <stop offset="100%" stop-color="#2E4469"/>
    </linearGradient>
    <path id="n" d="M69.835 1.872C42.095 6.69 21 30.882 21 60c0 29.119 21.094 53.31 48.835 58.128a59.376 59.376 0 0 1-10.164.872c-32.585 0-59-26.415-59-59s26.415-59 59-59c3.466 0 6.862.299 10.164.872z"/>
    <linearGradient id="o" x1="100%" x2="72.82%" y1="50%" y2="141.564%">
      <stop offset="0%" stop-color="#FFE474" stop-opacity=".131"/>
      <stop offset="100%" stop-color="#FFC540"/>
    </linearGradient>
  </defs>
  <g fill="none" fill-rule="evenodd" transform="translate(1 1)">
    <mask id="c" fill="#fff">
      <use xlink:href="#a"/>
    </mask>
    <use fill="url(#b)" xlink:href="#a"/>
    <path fill="#25395B" fill-rule="nonzero" d="M61.088 4.906c30.275 0 54.815 24.639 54.815 55.03 0 30.393-24.54 55.032-54.815 55.032-30.272 0-54.815-24.639-54.815-55.032 0-30.391 24.543-55.03 54.815-55.03" mask="url(#c)"/>
    <path stroke="url(#d)" stroke-width=".5" d="M61.088 8.095c-28.517 0-51.638 23.21-51.638 51.84 0 28.633 23.12 51.844 51.638 51.844 28.52 0 51.638-23.21 51.638-51.843 0-28.631-23.119-51.841-51.638-51.841z" mask="url(#c)"/>
    <g fill-rule="nonzero" mask="url(#c)">
      <path fill="url(#e)" d="M74.096 26.87a60.138 60.138 0 0 0-2.898-.917c.161-.659.31-1.32.448-1.985 2.193-10.69.759-19.304-4.14-22.139C62.81-.89 55.13 1.945 47.372 8.722a60.307 60.307 0 0 0-2.241 2.066c-.489-.47-.986-.932-1.492-1.384-8.13-7.247-16.28-10.3-21.172-7.457-4.692 2.727-6.082 10.824-4.107 20.956a59.86 59.86 0 0 0 .665 2.994 59.714 59.714 0 0 0-3.332 1.052C6.161 30.285.073 35.514.073 40.937c0 5.601 6.535 11.22 16.463 14.626.805.275 1.617.53 2.434.764a59.325 59.325 0 0 0-.707 3.227c-1.883 9.956-.412 17.861 4.268 20.571 4.833 2.798 12.945-.078 20.845-7.01a51.077 51.077 0 0 0 1.878-1.738c.79.765 1.602 1.509 2.434 2.229 7.651 6.61 15.208 9.28 19.884 6.562 4.829-2.806 6.398-11.299 4.36-21.631a51.366 51.366 0 0 0-.54-2.416c.57-.169 1.13-.343 1.675-.525 10.32-3.433 17.036-8.983 17.036-14.66 0-5.442-6.284-10.706-16.007-14.066z" transform="translate(16 19)"/>
      <path fill="#25395B" d="M87.857 70.931c-.492.164-.997.322-1.512.475-1.14-3.621-2.677-7.472-4.559-11.45 1.796-3.884 3.274-7.685 4.382-11.283.92.268 1.815.55 2.676.848 8.331 2.879 13.413 7.136 13.413 10.416 0 3.494-5.488 8.03-14.4 10.994zm-3.697 7.356c.9 4.569 1.03 8.7.432 11.929-.536 2.901-1.614 4.836-2.947 5.61-2.838 1.65-8.905-.494-15.449-6.147a55.218 55.218 0 0 1-2.264-2.072c2.537-2.785 5.073-6.024 7.547-9.62 4.352-.387 8.464-1.021 12.193-1.887.184.744.347 1.474.488 2.187zM46.766 95.542c-2.772.982-4.98 1.01-6.314.238-2.84-1.644-4.02-7.992-2.41-16.506a55.59 55.59 0 0 1 .657-3c3.688.818 7.77 1.407 12.133 1.762 2.49 3.52 5.1 6.754 7.728 9.586a47.43 47.43 0 0 1-1.715 1.586c-3.493 3.065-6.994 5.24-10.078 6.334zM33.78 70.91c-4.39-1.507-8.015-3.464-10.5-5.6-2.233-1.92-3.36-3.826-3.36-5.373 0-3.291 4.887-7.489 13.038-10.342a55.335 55.335 0 0 1 3.099-.979c1.127 3.679 2.605 7.525 4.388 11.415-1.807 3.947-3.305 7.855-4.443 11.577a47.242 47.242 0 0 1-2.222-.698zm4.353-29.748c-1.692-8.682-.568-15.23 2.26-16.873 3.012-1.75 9.671.745 16.691 7.003.449.4.9.818 1.35 1.252-2.614 2.82-5.2 6.03-7.668 9.528-4.234.394-8.288 1.026-12.014 1.874a56.8 56.8 0 0 1-.619-2.785zm38.835 9.626a122.885 122.885 0 0 0-2.738-4.52c2.873.364 5.625.848 8.21 1.44a82.567 82.567 0 0 1-2.882 7.784 134.726 134.726 0 0 0-2.59-4.704zM61.13 35.303a82.502 82.502 0 0 1 5.298 6.42 112.812 112.812 0 0 0-10.64-.002 85.07 85.07 0 0 1 5.342-6.418zM45.193 50.815a114.236 114.236 0 0 0-2.541 4.674 85.427 85.427 0 0 1-2.861-7.821 86.466 86.466 0 0 1 8.162-1.407 113.601 113.601 0 0 0-2.76 4.554zm2.842 23.073c-2.949-.33-5.73-.778-8.297-1.34a86.795 86.795 0 0 1 2.918-7.978 113.535 113.535 0 0 0 5.379 9.318zm13.202 10.956a86.705 86.705 0 0 1-5.416-6.508c1.723.068 3.48.102 5.267.102 1.835 0 3.65-.041 5.435-.121a82.074 82.074 0 0 1-5.286 6.527zM79.594 64.43c1.204 2.753 2.218 5.417 3.024 7.95a81.332 81.332 0 0 1-8.399 1.438 135.121 135.121 0 0 0 2.764-4.6 122.802 122.802 0 0 0 2.611-4.788zm-5.942 2.86a126.675 126.675 0 0 1-4.32 6.996 115.8 115.8 0 0 1-8.244.29c-2.801 0-5.527-.087-8.151-.258a109.583 109.583 0 0 1-8.241-14.29 109.695 109.695 0 0 1 3.83-7.286v.001a108.566 108.566 0 0 1 4.365-6.977 108.543 108.543 0 0 1 16.41.003 116.353 116.353 0 0 1 4.338 6.953 126.73 126.73 0 0 1 3.881 7.252 116.478 116.478 0 0 1-3.868 7.316zm7.934-43.117c3.014 1.746 4.187 8.784 2.293 18.015-.124.602-.26 1.2-.405 1.797-3.735-.865-7.791-1.51-12.038-1.91-2.474-3.536-5.037-6.751-7.61-9.534a56.629 56.629 0 0 1 2.07-1.907c6.647-5.807 12.86-8.1 15.69-6.461z"/>
      <path fill="#2E4469" d="M61.088 48.37c6.364 0 11.522 5.179 11.522 11.567s-5.158 11.567-11.522 11.567c-6.363 0-11.521-5.179-11.521-11.567S54.725 48.37 61.088 48.37"/>
      <path fill="#2E4469" stroke="url(#f)" stroke-width=".2" d="M45.088 32.966c-4.384 0-7.94 3.569-7.94 7.97 0 4.403 3.556 7.972 7.94 7.972 4.385 0 7.94-3.569 7.94-7.971s-3.555-7.971-7.94-7.971z" transform="translate(16 19)"/>
      <path stroke="url(#g)" d="M45.088 32.866c4.44 0 8.04 3.614 8.04 8.07 0 4.458-3.6 8.072-8.04 8.072-4.44 0-8.04-3.614-8.04-8.071s3.6-8.071 8.04-8.071" transform="translate(16 19)"/>
    </g>
    <g mask="url(#c)">
      <path stroke="url(#h)" stroke-width="2" d="M49.855.157l-8.78 20.118-37.141-1.868 11.099 38.18" transform="rotate(122 36.907 70.526)"/>
      <g transform="rotate(122 13.195 72.558)">
        <circle cx="3" cy="3" r="3" fill="#FAC446"/>
        <path fill="#FFF" fill-opacity=".2" d="M1.111 5A2.778 2.778 0 1 1 5 1.111 2.778 2.778 0 0 0 1.111 5z"/>
      </g>
      <g transform="rotate(122 32.586 63.075)">
        <circle cx="3.5" cy="3.5" r="3.5" fill="#FAC446"/>
        <path fill="#FFF" fill-opacity=".2" d="M1.333 6A3.333 3.333 0 1 1 6 1.333 3.333 3.333 0 0 0 1.333 6z"/>
      </g>
      <g transform="rotate(122 20.103 48.466)">
        <circle cx="8" cy="8" r="7.25" fill="#C08D17" filter="url(#i)"/>
        <circle cx="8" cy="8" r="3" fill="#FAC446"/>
      </g>
      <path fill="#FFF" fill-opacity=".2" d="M60 56.935a2.857 2.857 0 1 1 1.273 5.512A2.857 2.857 0 0 0 60 56.935z"/>
    </g>
    <use stroke="url(#j)" stroke-width="2" xlink:href="#k"/>
    <use fill="#2E4469" xlink:href="#l"/>
    <path stroke="url(#m)" stroke-width=".5" d="M75.495 3.368a57.717 57.717 0 0 0-8.445-.618C35.432 2.75 9.8 28.382 9.8 60s25.632 57.25 57.25 57.25c2.846 0 5.666-.208 8.445-.618C48.75 111.297 29.112 87.7 29.112 60c0-27.701 19.638-51.297 46.383-56.632z"/>
    <mask id="p" fill="#fff">
      <use xlink:href="#n"/>
    </mask>
    <use fill="url(#b)" xlink:href="#n"/>
    <path stroke="url(#o)" stroke-width=".5" d="M44.905 60.004l7.58-13.911c3.808-.231 6.669-.347 8.581-.347 1.913 0 4.553.116 7.92.347l4.17 6.284 4.34 7.627-8.007 14.258H52.484l-7.58-14.258z" mask="url(#p)"/>
  </g>
</svg>
