<svg xmlns="http://www.w3.org/2000/svg" xmlns:xlink="http://www.w3.org/1999/xlink" width="122" height="122">
  <defs>
    <circle id="a" cx="60" cy="60" r="60"/>
    <linearGradient id="b" x1="14.445%" x2="84.555%" y1="2.719%" y2="100%">
      <stop offset="0%" stop-color="#76E1FF"/>
      <stop offset="100%" stop-color="#637BFF" stop-opacity="0"/>
    </linearGradient>
    <linearGradient id="d" x1="78.755%" x2="7.159%" y1="0%" y2="88.92%">
      <stop offset="0%" stop-color="#76E1FF"/>
      <stop offset="100%" stop-color="#637BFF" stop-opacity="0"/>
    </linearGradient>
    <linearGradient id="e" x1="16.259%" x2="82.101%" y1="6.036%" y2="146.101%">
      <stop offset="0%" stop-color="#76E1FF"/>
      <stop offset="100%" stop-color="#637BFF" stop-opacity="0"/>
    </linearGradient>
    <linearGradient id="f" x1="67.252%" x2="15.826%" y1="22.034%" y2="163.626%">
      <stop offset="0%" stop-color="#76E1FF"/>
      <stop offset="100%" stop-color="#637BFF" stop-opacity="0"/>
    </linearGradient>
    <filter id="g" width="200.5%" height="199.8%" x="-50.2%" y="-49.9%" filterUnits="objectBoundingBox">
      <feGaussianBlur in="SourceGraphic" stdDeviation="2.6"/>
    </filter>
    <linearGradient id="h" x1="50%" x2="50%" y1="0%" y2="97.483%">
      <stop offset="0%" stop-color="#21C8F6"/>
      <stop offset="100%" stop-color="#637BFF"/>
    </linearGradient>
    <linearGradient id="i" x1="24.379%" x2="84.171%" y1="5.536%" y2="97.907%">
      <stop offset="0%" stop-color="#76E1FF"/>
      <stop offset="100%" stop-color="#637BFF" stop-opacity="0"/>
    </linearGradient>
    <circle id="j" cx="60" cy="60" r="60"/>
  </defs>
  <g fill="none" fill-rule="evenodd" transform="translate(1 1)">
    <mask id="c" fill="#fff">
      <use xlink:href="#a"/>
    </mask>
    <use fill="#253B5F" xlink:href="#a"/>
    <g stroke="url(#b)" stroke-width=".665" mask="url(#c)" opacity=".5">
      <path d="M-2 12h124v99H-2z"/>
      <path d="M-2 25h124v74H-2z"/>
      <path d="M-2 39h124v47H-2z"/>
      <path d="M-2 54h124v17H-2z"/>
    </g>
    <g stroke="url(#d)" stroke-width=".665" mask="url(#c)" opacity=".5">
      <path d="M10 122V-2h99v124z"/>
      <path d="M23 122V-2h74v124z"/>
      <path d="M37 122V-2h47v124z"/>
      <path d="M52 122V-2h17v124z"/>
    </g>
    <g fill-rule="nonzero" mask="url(#c)">
      <path fill="#253B5F" d="M80.665 47.6c-.297 0-.59.02-.877.056l-8.237-15.98a6.822 6.822 0 0 0 1.956-4.776c0-3.805-3.141-6.9-7.002-6.9-3.043 0-5.637 1.923-6.6 4.6H35.762c-.964-2.677-3.558-4.6-6.6-4.6-3.861 0-7.003 3.095-7.003 6.9 0 1.852.746 3.535 1.956 4.776l-8.236 15.98a7.13 7.13 0 0 0-.877-.056C11.142 47.6 8 50.695 8 54.5s3.141 6.9 7.002 6.9c.297 0 .589-.02.877-.056l8.236 15.98A6.821 6.821 0 0 0 22.16 82.1c0 3.805 3.142 6.9 7.002 6.9 3.043 0 5.637-1.923 6.6-4.6h24.144c.963 2.677 3.557 4.6 6.6 4.6 3.861 0 7.002-3.095 7.002-6.9a6.822 6.822 0 0 0-1.956-4.776l8.237-15.98c.287.036.58.056.877.056 3.86 0 7.002-3.095 7.002-6.9s-3.141-6.9-7.002-6.9zm-5.05 2.12l-11.47-3.852a6.65 6.65 0 0 0 .026-.568c0-2.077-.938-3.942-2.416-5.208l4.697-6.293.053.001c.297 0 .589-.02.877-.056l8.234 15.976zm-20.54 2.165a7.067 7.067 0 0 0 2.094.315 7.03 7.03 0 0 0 5.044-2.121l11.326 3.803-24.537 6.012-.01-.016 6.083-7.993zm-.24-6.585c0-1.268 1.047-2.3 2.334-2.3 1.287 0 2.334 1.032 2.334 2.3 0 1.268-1.047 2.3-2.334 2.3-1.287 0-2.334-1.032-2.334-2.3zm11.67-20.7c1.287 0 2.334 1.032 2.334 2.3 0 1.268-1.047 2.3-2.334 2.3-1.287 0-2.334-1.032-2.334-2.3 0-1.268 1.047-2.3 2.334-2.3zm-6.6 4.6a6.919 6.919 0 0 0 2.015 2.908l-4.698 6.293-.053-.001a7.033 7.033 0 0 0-4.195 1.38L36.87 29.2h23.035zm-9.523 14.405a6.795 6.795 0 0 0 .96 5.517l-6.083 7.993a7.072 7.072 0 0 0-2.094-.315c-.044 0-.087.002-.131.003L33.888 32.77l16.494 10.836zM45.499 63.7c0 1.268-1.047 2.3-2.334 2.3-1.287 0-2.334-1.032-2.334-2.3 0-1.268 1.047-2.3 2.334-2.3 1.287 0 2.334 1.032 2.334 2.3zM29.161 24.6c1.287 0 2.334 1.032 2.334 2.3 0 1.268-1.047 2.3-2.334 2.3-1.287 0-2.334-1.032-2.334-2.3 0-1.268 1.047-2.3 2.334-2.3zm-.876 9.144c.287.036.58.056.876.056.045 0 .088-.002.132-.003l9.37 24.624a7.005 7.005 0 0 0-1.02 1.045L22 54.37a6.823 6.823 0 0 0-1.953-4.646l8.237-15.98zM15.002 56.8c-1.287 0-2.334-1.032-2.334-2.3 0-1.268 1.047-2.3 2.334-2.3 1.287 0 2.334 1.032 2.334 2.3 0 1.268-1.047 2.3-2.334 2.3zm14.16 27.6c-1.288 0-2.335-1.032-2.335-2.3 0-1.268 1.047-2.3 2.334-2.3 1.287 0 2.334 1.032 2.334 2.3 0 1.268-1.047 2.3-2.334 2.3zm2.093-8.885a7.074 7.074 0 0 0-2.97-.259l-8.237-15.98c.169-.173.328-.354.477-.542l15.642 5.096a6.787 6.787 0 0 0 1.172 3.692l-6.084 7.993zm4.507 4.285a6.842 6.842 0 0 0-.774-1.522l6.083-7.993a7.067 7.067 0 0 0 2.094.315 7.034 7.034 0 0 0 3.695-1.042L59.852 79.8h-24.09zm30.743 4.6c-1.287 0-2.334-1.032-2.334-2.3 0-1.268 1.047-2.3 2.334-2.3 1.287 0 2.334 1.032 2.334 2.3 0 1.268-1.047 2.3-2.334 2.3zm.877-9.144a7.034 7.034 0 0 0-4.57.986L49.776 65.967a6.764 6.764 0 0 0 .358-1.61l24.693-6.051c.234.347.499.67.79.97l-8.236 15.98zM80.665 56.8c-1.287 0-2.334-1.032-2.334-2.3 0-1.268 1.047-2.3 2.334-2.3 1.287 0 2.334 1.032 2.334 2.3 0 1.268-1.047 2.3-2.334 2.3z"/>
      <path stroke="url(#e)" stroke-width=".839" d="M72.665 27.6c-.297 0-.59.02-.877.056l-8.237-15.98A6.822 6.822 0 0 0 65.507 6.9c0-3.805-3.141-6.9-7.002-6.9-3.043 0-5.637 1.923-6.6 4.6H27.762c-.964-2.677-3.558-4.6-6.6-4.6-3.861 0-7.003 3.095-7.003 6.9 0 1.852.746 3.535 1.956 4.776l-8.236 15.98a7.13 7.13 0 0 0-.877-.056C3.142 27.6 0 30.695 0 34.5s3.141 6.9 7.002 6.9c.297 0 .589-.02.877-.056l8.236 15.98A6.821 6.821 0 0 0 14.16 62.1c0 3.805 3.142 6.9 7.002 6.9 3.043 0 5.637-1.923 6.6-4.6h24.144c.963 2.677 3.557 4.6 6.6 4.6 3.861 0 7.002-3.095 7.002-6.9a6.822 6.822 0 0 0-1.956-4.776l8.237-15.98c.287.036.58.056.877.056 3.86 0 7.002-3.095 7.002-6.9s-3.141-6.9-7.002-6.9zm-5.05 2.12l-11.47-3.852a6.65 6.65 0 0 0 .026-.568c0-2.077-.938-3.942-2.416-5.208l4.697-6.293.053.001c.297 0 .589-.02.877-.056l8.234 15.976zm-20.54 2.165a7.067 7.067 0 0 0 2.094.315 7.03 7.03 0 0 0 5.044-2.121l11.326 3.803-24.537 6.012-.01-.016 6.083-7.993zm-.24-6.585c0-1.268 1.047-2.3 2.334-2.3 1.287 0 2.334 1.032 2.334 2.3 0 1.268-1.047 2.3-2.334 2.3-1.287 0-2.334-1.032-2.334-2.3zm11.67-20.7c1.287 0 2.334 1.032 2.334 2.3 0 1.268-1.047 2.3-2.334 2.3-1.287 0-2.334-1.032-2.334-2.3 0-1.268 1.047-2.3 2.334-2.3zm-6.6 4.6a6.919 6.919 0 0 0 2.015 2.908l-4.698 6.293-.053-.001a7.033 7.033 0 0 0-4.195 1.38L28.87 9.2h23.035zm-9.523 14.405a6.795 6.795 0 0 0 .96 5.517l-6.083 7.993a7.072 7.072 0 0 0-2.094-.315c-.044 0-.087.002-.131.003L25.888 12.77l16.494 10.836zM37.499 43.7c0 1.268-1.047 2.3-2.334 2.3-1.287 0-2.334-1.032-2.334-2.3 0-1.268 1.047-2.3 2.334-2.3 1.287 0 2.334 1.032 2.334 2.3zM21.161 4.6c1.287 0 2.334 1.032 2.334 2.3 0 1.268-1.047 2.3-2.334 2.3-1.287 0-2.334-1.032-2.334-2.3 0-1.268 1.047-2.3 2.334-2.3zm-.876 9.144c.287.036.58.056.876.056.045 0 .088-.002.132-.003l9.37 24.624a7.005 7.005 0 0 0-1.02 1.045L14 34.37a6.823 6.823 0 0 0-1.953-4.646l8.237-15.98zM7.002 36.8c-1.287 0-2.334-1.032-2.334-2.3 0-1.268 1.047-2.3 2.334-2.3 1.287 0 2.334 1.032 2.334 2.3 0 1.268-1.047 2.3-2.334 2.3zm14.16 27.6c-1.288 0-2.335-1.032-2.335-2.3 0-1.268 1.047-2.3 2.334-2.3 1.287 0 2.334 1.032 2.334 2.3 0 1.268-1.047 2.3-2.334 2.3zm2.093-8.885a7.074 7.074 0 0 0-2.97-.259l-8.237-15.98c.169-.173.328-.354.477-.542l15.642 5.096a6.787 6.787 0 0 0 1.172 3.692l-6.084 7.993zm4.507 4.285a6.842 6.842 0 0 0-.774-1.522l6.083-7.993a7.067 7.067 0 0 0 2.094.315 7.034 7.034 0 0 0 3.695-1.042L51.852 59.8h-24.09zm30.743 4.6c-1.287 0-2.334-1.032-2.334-2.3 0-1.268 1.047-2.3 2.334-2.3 1.287 0 2.334 1.032 2.334 2.3 0 1.268-1.047 2.3-2.334 2.3zm.877-9.144a7.034 7.034 0 0 0-4.57.986L41.776 45.967a6.764 6.764 0 0 0 .358-1.61l24.693-6.051c.234.347.499.67.79.97l-8.236 15.98zM72.665 36.8c-1.287 0-2.334-1.032-2.334-2.3 0-1.268 1.047-2.3 2.334-2.3 1.287 0 2.334 1.032 2.334 2.3 0 1.268-1.047 2.3-2.334 2.3z" transform="translate(8 20)"/>
    </g>
    <g mask="url(#c)">
      <g transform="scale(1 -1) rotate(-28 -148.824 -90.357)">
        <path stroke="url(#f)" stroke-width="2" d="M87.417 55.379l-27.722-3.892L44.434 4.54 7.732 24.532"/>
        <ellipse cx="7.765" cy="23.442" fill="#328AF1" filter="url(#g)" rx="7.765" ry="7.814"/>
        <ellipse cx="59.529" cy="50.791" fill="url(#h)" rx="5.176" ry="5.209"/>
        <path fill="#FFF" fill-opacity=".2" d="M56.325 54.512a4.964 4.964 0 0 1-1.972-3.97c0-2.74 2.207-4.96 4.93-4.96 1.613 0 3.044.779 3.944 1.984a4.888 4.888 0 0 0-2.958-.992c-2.723 0-4.93 2.22-4.93 4.96a4.96 4.96 0 0 0 .986 2.978z"/>
        <ellipse cx="44.647" cy="4.558" fill="url(#h)" rx="4.529" ry="4.558"/>
        <path fill="#FFF" fill-opacity=".2" d="M41.843 7.814a4.344 4.344 0 0 1-1.725-3.473C40.118 1.944 42.048 0 44.43 0c1.411 0 2.664.682 3.451 1.736a4.277 4.277 0 0 0-2.588-.868c-2.382 0-4.314 1.944-4.314 4.341 0 .978.321 1.88.863 2.605z"/>
        <g transform="translate(3.882 18.233)">
          <ellipse cx="4.529" cy="5.209" fill="url(#h)" rx="4.529" ry="4.341"/>
          <path fill="#FFF" fill-opacity=".2" d="M1.725 8.31C.678 7.556 0 6.355 0 5.002 0 2.72 1.931.868 4.314.868c1.41 0 2.664.65 3.45 1.654a4.418 4.418 0 0 0-2.588-.827C2.794 1.695.863 3.546.863 5.83c0 .931.32 1.79.862 2.481z"/>
        </g>
      </g>
    </g>
    <use stroke="url(#i)" xlink:href="#j"/>
  </g>
</svg>
