<svg xmlns="http://www.w3.org/2000/svg" xmlns:xlink="http://www.w3.org/1999/xlink" width="122" height="122">
  <defs>
    <circle id="a" cx="60" cy="60" r="60"/>
    <linearGradient id="c" x1="88.509%" x2="-65.199%" y1="28.054%" y2="176.414%">
      <stop offset="0%" stop-color="#6EDCC4"/>
      <stop offset="100%" stop-color="#1AAB8B" stop-opacity="0"/>
    </linearGradient>
    <linearGradient id="d" x1="50%" x2="50%" y1="11.35%" y2="111.35%">
      <stop offset="0%" stop-color="#6EDCC4"/>
      <stop offset="100%" stop-color="#1AAB8B"/>
    </linearGradient>
    <filter id="e" width="188.3%" height="188.3%" x="-44.1%" y="-44.1%" filterUnits="objectBoundingBox">
      <feGaussianBlur in="SourceGraphic" stdDeviation="2"/>
    </filter>
    <linearGradient id="f" x1="0%" y1="50%" y2="50%">
      <stop offset="0%" stop-color="#5B79A2"/>
      <stop offset="100%" stop-color="#2E4469"/>
    </linearGradient>
    <linearGradient id="g" x1="13.61%" x2="77.536%" y1="-15.525%" y2="100%">
      <stop offset="0%" stop-color="#80A4D5"/>
      <stop offset="100%" stop-color="#2E4469"/>
    </linearGradient>
    <radialGradient id="h" cx="52.101%" cy="30.594%" r="256.929%" fx="52.101%" fy="30.594%" gradientTransform="matrix(-.18992 0 0 -.12688 .62 .345)">
      <stop offset="0%"/>
      <stop offset="100%" stop-opacity=".002"/>
    </radialGradient>
    <linearGradient id="i" x1="15.236%" x2="94.911%" y1="6.048%" y2="86.068%">
      <stop offset="0%" stop-color="#48F0CC"/>
      <stop offset="100%" stop-color="#1AAB8B"/>
    </linearGradient>
    <circle id="j" cx="60" cy="60" r="60"/>
  </defs>
  <g fill="none" fill-rule="evenodd">
    <g transform="translate(1 1)">
      <mask id="b" fill="#fff">
        <use xlink:href="#a"/>
      </mask>
      <use fill="#000" fill-opacity=".152" xlink:href="#a"/>
      <rect width="120" height="120" fill="#000" fill-opacity=".152" mask="url(#b)" rx="1.4"/>
      <g mask="url(#b)">
        <g transform="translate(52 6)">
          <path stroke="url(#c)" stroke-linejoin="round" stroke-width="2" d="M52.285 51.657L6.465 6.451"/>
          <circle cx="6.797" cy="6.797" r="6.797" fill="url(#d)" filter="url(#e)"/>
          <circle cx="6.813" cy="6.556" r="2.813" fill="url(#d)"/>
          <path fill="#FFF" fill-opacity=".2" d="M4.783 8.821a2.679 2.679 0 1 1 3.75-3.75 2.679 2.679 0 0 0-3.75 3.75z"/>
        </g>
      </g>
      <g transform="translate(23 18)">
        <rect width="50.594" height="18.991" x="11.385" y="41.539" fill="url(#f)" fill-rule="nonzero" rx="3"/>
        <path fill="#25395B" fill-rule="nonzero" d="M11.385 43.122h50.594v3.165H11.385z"/>
        <path stroke="url(#g)" stroke-width=".65" d="M11.71 43.447h49.944v2.515H11.71z"/>
        <path fill="url(#f)" fill-rule="nonzero" d="M25.614 16.218h22.135v9.496H25.614z"/>
        <path stroke="url(#g)" stroke-width=".65" d="M25.939 16.543h21.485v8.846H25.939z"/>
        <path fill="url(#f)" fill-rule="nonzero" d="M63.56 43.122H9.806l2.501-15.025a4.745 4.745 0 0 1 4.68-3.967H56.38a4.745 4.745 0 0 1 4.68 3.967l2.5 15.025z"/>
        <path stroke="url(#g)" stroke-width=".65" d="M63.177 42.797L60.74 28.151a4.42 4.42 0 0 0-4.359-3.696H16.985a4.42 4.42 0 0 0-4.358 3.696l-2.439 14.646h52.99z"/>
        <g transform="translate(14 2)">
          <path fill="url(#f)" fill-rule="nonzero" d="M41.655 15.8H3.71a3.164 3.164 0 0 1-3.162-3.166v-6.33A3.164 3.164 0 0 1 3.71 3.137h37.945a3.164 3.164 0 0 1 3.162 3.165v6.331a3.164 3.164 0 0 1-3.162 3.165z"/>
          <path stroke="url(#g)" stroke-width=".65" d="M41.655 15.474a2.839 2.839 0 0 0 2.837-2.84v-6.33c0-1.57-1.27-2.84-2.837-2.84H3.71a2.839 2.839 0 0 0-2.837 2.84v6.33c0 1.569 1.27 2.84 2.837 2.84h37.945z"/>
          <ellipse cx="21.908" cy="6.577" fill="url(#f)" fill-rule="nonzero" rx="6.324" ry="6.331"/>
          <circle cx="22" cy="6.5" r="2.5" fill="#25395B"/>
          <ellipse cx="21.908" cy="6.577" stroke="url(#g)" stroke-width=".65" rx="5.999" ry="6.006"/>
          <path fill="#25395B" fill-rule="nonzero" d="M18 2h8a1 1 0 0 1 1 1v1.165H17V3a1 1 0 0 1 1-1z"/>
          <path fill="#4FCAAF" fill-rule="nonzero" stroke="#2E4469" d="M19.358 5c.506.85 1.5 1.428 2.642 1.428S24.136 5.85 24.642 5A2.5 2.5 0 0 1 25 6.286C25 7.785 23.657 9 22 9s-3-1.215-3-2.714c0-.465.13-.903.358-1.286z"/>
          <ellipse cx="21.942" cy="6.706" stroke="url(#g)" stroke-width=".65" rx="2.837" ry="2.84"/>
        </g>
        <path fill="#25395B" fill-rule="nonzero" d="M16.985 24.13a4.745 4.745 0 0 0-4.679 3.968l-.393 2.363h49.54l-.394-2.363a4.745 4.745 0 0 0-4.679-3.968H16.985z"/>
        <path stroke="url(#g)" stroke-width=".65" d="M12.297 30.136h48.772l-.33-1.985a4.42 4.42 0 0 0-4.359-3.696H16.985a4.42 4.42 0 0 0-4.358 3.696l-.33 1.985z"/>
      </g>
      <ellipse cx="53.459" cy="11.72" fill="url(#h)" opacity=".298" rx="53.279" ry="10.119" transform="rotate(1 -4753.716 512.061)"/>
      <use stroke="url(#i)" stroke-width="2" xlink:href="#j"/>
      <g transform="rotate(122 38.641 58.187)">
        <circle cx="3.5" cy="3.5" r="3.5" fill="url(#d)"/>
        <path fill="#FFF" fill-opacity=".2" d="M1.333 6A3.333 3.333 0 1 1 6 1.333 3.333 3.333 0 0 0 1.333 6z"/>
      </g>
      <path fill="#25395B" d="M51.24 61.75a2 2 0 0 1 1.105 2.603l-7.117 17.616a2 2 0 1 1-3.709-1.498l3.306-8.184 3.811-9.433a2 2 0 0 1 2.604-1.105z"/>
      <path stroke="url(#g)" stroke-width=".65" d="M46.932 61.237c-.925 0-1.675.75-1.675 1.675v19a1.675 1.675 0 1 0 3.35 0v-19c0-.925-.75-1.675-1.675-1.675z" transform="rotate(22 46.932 72.412)"/>
      <rect width="4" height="11" x="50.125" y="61.33" fill="#25395B" rx="2" transform="rotate(-15 52.125 66.83)"/>
      <rect width="3.35" height="10.35" x="50.45" y="61.655" stroke="url(#g)" stroke-width=".65" rx="1.675" transform="rotate(-15 52.125 66.83)"/>
    </g>
    <g transform="translate(25 57)">
      <path stroke="url(#c)" stroke-linejoin="round" stroke-width="2" d="M82.734.796L4.792 26.734 37.24 62.585"/>
      <circle cx="4.318" cy="26.043" r="3.5" fill="url(#d)"/>
      <path fill="#FFF" fill-opacity=".2" d="M2.15 28.543a3.333 3.333 0 1 1 4.667-4.667 3.333 3.333 0 0 0-4.667 4.667z"/>
    </g>
  </g>
</svg>
