<svg xmlns="http://www.w3.org/2000/svg" width="160" height="32" viewBox="0 0 26.95 3.63">
    <g id="logo" fill="#7d97ad" fill-rule="evenodd">
        <path class="cls-1" d="M1.47,3.56H.74l.54-3H0L.09,0h3.3L3.3.53H2Z"/>
        <path class="cls-1" d="M22.07,0h.41a2.1,2.1,0,0,1-.07.54h.18l.18-.47h.41L23,.56h.29l-.08.32h-.88l-.07.17h1.06l-.07.31h-.61v0a1.44,1.44,0,0,0,.67.36v0l-.13.32a1.57,1.57,0,0,1-.51-.2v0l-.09.4c.12,0,.33,0,.38,0s0,.21,0,.29l-.18.91H21.72l-.09-.32h.8c0-.18.15-.44.08-.6H21.11L21.23,2a1.54,1.54,0,0,1-.38.12l.09-.39a1.17,1.17,0,0,0,.65-.35H21l.07-.31a3.53,3.53,0,0,0,.74,0L21.9.89h-.79l.06-.32h.28L21.34.09h.41v0l.1.46H22C22,.38,22.06.22,22.07,0Z"/>
        <path class="cls-1" d="M24,0c.11,0,.4,0,.46,0l.2.83h-.49Z"/>
        <path class="cls-1" d="M20.08.12c.23,0,.94-.05,1,.09a4.35,4.35,0,0,1-.17,1l-.41,2.32H20.1l.24-1.21h-.29l-.27,1.23h-.4l.27-1A17.71,17.71,0,0,0,20.08.12Z"/>
        <path class="cls-1" d="M25.08,1.82h-.45l.07-.36h.46l.16-.85.42.25-.1.6h.61c0-.22.23-.81.14-1h-1.1c-.1,0-.34,0-.4,0L24.81.12h1.94c.08,0,.14,0,.18.08s0,.63-.08.77l-.44,2.24h.46l-.15.35h-.87l.33-1.75h-.61l-.32,1.74h-.49l.16-.81Z"/>
        <path class="cls-1" d="M17.68.45,19.1,1.59h-.9l-.34,2h-.73l.35-2h-.42l-.31-.46h.82Z"/>
        <path class="cls-1" d="M23.62,1.05h.85l-.28,1.69h0l0,0,.44-.34-.09.52-.22.17a6.61,6.61,0,0,1-.82.55l.25-1.25.16-1h-.38v0Z"/>
        <path class="cls-1" d="M3.73,1.08c1,0,1.43.46,1.16,1.43H3.47c-.12,0-.43,0-.51,0s.12.41.22.48c.5.32,1.21,0,1.58-.2l-.1.55c-1.09.54-3,.19-2.28-1.38a1.53,1.53,0,0,1,1-.84Z"/>
        <path class="cls-1" d="M7.71,3.56H7l.14-.79a2,2,0,0,0,.11-.9.39.39,0,0,0-.3-.27.73.73,0,0,0-.77.35A2,2,0,0,0,6,2.48l-.2,1.08H5.12l.26-1.51.14-1,.65.37C6.55.94,7.75.92,8,1.61a1.58,1.58,0,0,1,0,.74Z"/>
        <path class="cls-1" d="M9.92,1.08a3.18,3.18,0,0,1,1,.14l-.11.66h0a.92.92,0,0,0-1-.29c-.38.09-.91.46-.81,1a.89.89,0,0,0,1.26.48,1.65,1.65,0,0,0,.36-.23l-.12.64a2.92,2.92,0,0,1-1,.16c-.7-.11-1.41-.44-1.2-1.34l.15-.39a1.68,1.68,0,0,1,1-.72Z"/>
        <path class="cls-1" d="M12.43,1.08c1,0,1.43.46,1.16,1.43H11.66c-.09.61.68.73,1.21.57a2.89,2.89,0,0,0,.59-.28l-.1.55c-1.09.54-3,.19-2.28-1.38a1.53,1.53,0,0,1,1-.84Z"/>
        <path class="cls-1" d="M16.41,3.56h-.73l.14-.79a2.08,2.08,0,0,0,.11-.9.39.39,0,0,0-.3-.27.73.73,0,0,0-.77.35,2,2,0,0,0-.12.54l-.2,1.08h-.72l.26-1.51.14-1,.65.37c.38-.51,1.58-.53,1.78.16a1.58,1.58,0,0,1,0,.74Z"/>
        <path class="cls-1" d="M20.79,2.78h1.5l-.07.31H20.85Z"/>
    </g>
    <g fill="white" fill-rule="evenodd">
        <path class="cls-1" d="M20.41.45l-.11.6h.27V1a1.44,1.44,0,0,0,.1-.56h-.26Z"/>
        <path class="cls-1" d="M22.06,1.36l-.28.28h.61l0,0-.13-.23Z"/>
        <path class="cls-1" d="M20.41,2l.12-.64h-.28L20.12,2Z"/>
        <path class="cls-1" d="M3.7,1.5c-.3.13-.61.23-.65.59H4.3C4.33,1.65,4.15,1.49,3.7,1.5Z"/>
        <path class="cls-1" d="M12.4,1.5c-.3.13-.6.23-.65.59H13C13,1.65,12.84,1.49,12.4,1.5Z"/>
        <path class="cls-1" d="M21.59,2.32h.59L22.26,2h-.87V2C21.66,2,21.62,2.06,21.59,2.32Z"/>
    </g>
</svg>
