<svg xmlns="http://www.w3.org/2000/svg" width="99" height="72" viewBox="0 0 99 72">
  <g id="logo" fill="#7d97ad" fill-rule="evenodd">
    <path d="M61.416 54.496C55.664 58.742 47.326 61 40.144 61c-10.063 0-19.126-3.72-25.984-9.916-.538-.486-.058-1.15.59-.774 7.398 4.307 16.548 6.9 26 6.9 6.374 0 13.382-1.322 19.83-4.06.972-.41 1.788.642.836 1.346"></path>
    <path d="M63.81 51.762c-.736-.942-4.863-.446-6.718-.224-.56.067-.648-.424-.142-.78 3.293-2.313 8.687-1.645 9.314-.87.632.78-.166 6.192-3.25 8.774-.476.397-.927.185-.717-.34.695-1.734 2.25-5.617 1.513-6.56m-6.587-17.345V32.17c.002-.344.26-.57.57-.57h10.07c.323 0 .582.233.582.566v1.928c-.003.323-.276.745-.758 1.415l-5.217 7.45c1.936-.05 3.984.24 5.744 1.23.397.22.503.55.534.87v2.4c0 .33-.362.71-.742.51-3.1-1.63-7.213-1.8-10.64.02-.35.18-.717-.19-.717-.52V45.2c0-.366 0-.99.37-1.545l6.04-8.675H57.8c-.32 0-.58-.23-.58-.566m-36.736 14.04H17.42c-.29-.02-.524-.24-.547-.52l.002-15.73c0-.315.264-.566.59-.566h2.855c.3.016.54.24.558.53v2.053h.058c.744-1.98 2.145-2.91 4.032-2.91 1.917 0 3.118.93 3.976 2.91.744-1.98 2.43-2.91 4.233-2.91 1.287 0 2.69.53 3.547 1.72.972 1.33.772 3.24.772 4.93l-.003 9.93c0 .32-.264.57-.59.57h-3.06c-.31-.02-.55-.26-.55-.56v-8.34c0-.66.056-2.31-.088-2.94-.228-1.06-.914-1.35-1.8-1.35-.745 0-1.517.5-1.832 1.29-.314.8-.286 2.12-.286 3.02v8.34c0 .318-.264.57-.59.57h-3.06c-.31-.02-.55-.26-.55-.562l-.004-8.34c0-1.752.286-4.333-1.887-4.333-2.203 0-2.117 2.515-2.117 4.335v8.34c0 .313-.27.565-.6.565m56.65-13.94c-2.26 0-2.4 3.078-2.4 4.998s-.03 6.027 2.37 6.027c2.37 0 2.49-3.31 2.49-5.33 0-1.32-.06-2.91-.46-4.17-.35-1.09-1.03-1.52-2-1.52zm-.03-3.21c4.54 0 7 3.906 7 8.87 0 4.8-2.72 8.608-7.01 8.608-4.47 0-6.9-3.905-6.9-8.77 0-4.9 2.46-8.704 6.89-8.704zM90 48.477h-3.05c-.308-.02-.55-.264-.55-.566l-.006-15.73c.027-.29.28-.52.59-.52h2.84c.27.017.49.2.546.44v2.4h.06c.86-2.15 2.06-3.18 4.18-3.18 1.37 0 2.715.5 3.573 1.858.8 1.258.8 3.376.8 4.9v9.898c-.03.28-.28.497-.585.497h-3.07c-.285-.02-.514-.23-.547-.5v-8.54c0-1.72.2-4.24-1.91-4.24-.74 0-1.43.494-1.77 1.255-.43.96-.48 1.92-.48 2.98v8.47c-.004.315-.27.567-.595.567m-37.73-.043c-.2.18-.49.193-.72.07-1.02-.846-1.2-1.237-1.76-2.04-1.68 1.71-2.87 2.226-5.05 2.226-2.58 0-4.583-1.59-4.583-4.78 0-2.49 1.347-4.18 3.267-5.01 1.66-.73 3.984-.86 5.76-1.06v-.4c0-.73.06-1.59-.37-2.22-.37-.56-1.09-.79-1.72-.79-1.17 0-2.206.6-2.46 1.84-.057.28-.26.55-.536.566l-2.97-.32c-.25-.056-.53-.257-.46-.64.68-3.605 3.94-4.69 6.85-4.69 1.49 0 3.44.4 4.62 1.524 1.49 1.396 1.35 3.255 1.35 5.28v4.773c0 1.44.597 2.07 1.157 2.84.196.28.24.61-.01.82-.625.527-1.74 1.49-2.35 2.04l-.01-.01zm-3.09-7.474c0 1.2.03 2.19-.57 3.25-.48.86-1.26 1.4-2.12 1.4-1.17 0-1.86-.9-1.86-2.224 0-2.61 2.34-3.084 4.56-3.084v.664zm-37.08 7.47c-.2.186-.49.2-.72.07-1.013-.84-1.2-1.23-1.75-2.04-1.68 1.716-2.87 2.23-5.05 2.23C2.01 48.67 0 47.08 0 43.9c0-2.49 1.347-4.18 3.267-5.01 1.662-.73 3.985-.863 5.76-1.063v-.398c0-.73.06-1.6-.37-2.23-.374-.57-1.09-.8-1.72-.8-1.17 0-2.21.6-2.463 1.84-.053.27-.255.55-.533.56l-2.96-.32c-.25-.06-.53-.26-.45-.64.68-3.61 3.94-4.7 6.85-4.7 1.49 0 3.44.4 4.62 1.526 1.49 1.392 1.35 3.25 1.35 5.275v4.77c0 1.43.6 2.06 1.16 2.84.194.28.24.61-.01.81-.626.52-1.74 1.49-2.35 2.03l-.01-.01zm-3.09-7.47c0 1.197.03 2.19-.57 3.25-.482.865-1.26 1.397-2.12 1.397-1.17 0-1.86-.9-1.86-2.225 0-2.61 2.344-3.086 4.56-3.086v.664z"></path>
  </g>
</svg>
