<svg xmlns="http://www.w3.org/2000/svg" width="85" height="72" viewBox="0 0 85 72">
  <path id="logo" fill="#7d97ad" fill-rule="evenodd" d="M16.346 34.275H9.214c-.184 0-.333.155-.333.348v3.638c0 .2.15.35.34.35H12v4.52s-.626.23-2.353.23c-2.037 0-4.883-.77-4.883-7.31 0-6.53 2.964-7.39 5.747-7.39 2.41 0 3.45.45 4.11.66.21.07.4-.15.4-.34l.8-3.51c0-.09-.03-.2-.12-.272-.266-.2-1.902-1.153-6.035-1.153C4.885 24.025 0 26.137 0 36.3c0 10.16 5.59 11.675 10.303 11.675 3.9 0 6.268-1.74 6.268-1.74.1-.056.11-.2.11-.264V34.63c0-.193-.15-.348-.33-.348m36.75-9.037c0-.192-.14-.35-.33-.35h-4.02c-.18 0-.33.158-.33.35v8.1h-6.26v-8.1c0-.192-.14-.35-.33-.35h-4.01c-.18 0-.33.158-.33.35v21.93c0 .193.15.35.34.35h4.018c.183 0 .33-.157.33-.35v-9.38h6.26l-.01 9.38c0 .193.15.35.33.35h4.026c.184 0 .33-.157.33-.35V25.24zm-29.17 2.88c0-1.51-1.16-2.73-2.59-2.73s-2.59 1.22-2.59 2.73c0 1.507 1.16 2.73 2.59 2.73s2.59-1.223 2.59-2.73m-.29 14.425V32.42c0-.19-.15-.348-.33-.348H19.3c-.183 0-.347.198-.347.39v14.502c0 .426.254.553.584.553h3.606c.396 0 .493-.203.493-.56v-4.414zm44.73-10.44h-3.99c-.18 0-.33.157-.33.35v10.75s-1.01.773-2.45.773c-1.434 0-1.82-.68-1.82-2.146V32.46c0-.193-.15-.35-.332-.35H55.4c-.182 0-.332.157-.332.35v10.087c0 4.36 2.33 5.428 5.533 5.428 2.63 0 4.75-1.515 4.75-1.515s.1.8.15.894c.05.094.17.19.3.19l2.58-.013c.183 0 .333-.15.333-.35V32.46c0-.192-.15-.35-.334-.35m9.32 11.86c-1.384-.042-2.32-.696-2.32-.696v-6.946s.923-.592 2.06-.698c1.433-.134 2.816.318 2.816 3.89 0 3.768-.624 4.51-2.56 4.45m1.57-12.356c-2.26 0-3.8 1.055-3.8 1.055v-7.43c0-.2-.15-.35-.33-.35H71.1c-.186 0-.335.15-.335.35v21.93c0 .19.15.35.334.35h2.79c.12 0 .22-.07.29-.19.07-.12.17-1.01.17-1.01s1.65 1.63 4.76 1.63c3.66 0 5.755-1.94 5.755-8.7s-3.35-7.65-5.616-7.65m-44.07.46h-3.02l-.004-4.158c0-.157-.077-.236-.25-.236H27.8c-.16 0-.244.08-.244.24v4.29s-2.057.52-2.196.56c-.138.042-.24.175-.24.334v2.7c0 .194.148.35.332.35h2.104v6.488c0 4.82 3.24 5.292 5.425 5.292 1 0 2.2-.335 2.39-.41.12-.047.19-.176.19-.316l.01-2.966c0-.2-.15-.35-.33-.35-.17 0-.62.07-1.08.07-1.48 0-1.98-.72-1.98-1.65v-6.16h3.01c.186 0 .335-.16.335-.35v-3.38c0-.197-.15-.35-.334-.35"/>
</svg>
