<svg xmlns="http://www.w3.org/2000/svg" xmlns:xlink="http://www.w3.org/1999/xlink" width="122" height="123">
  <defs>
    <circle id="a" cx="60" cy="60" r="60"/>
    <radialGradient id="c" cx="51.287%" cy="55.477%" fx="51.287%" fy="55.477%" gradientTransform="matrix(0 1 -1.15321 0 1.153 .042)">
      <stop offset="0%" stop-color="#12223F"/>
      <stop offset="100%" stop-opacity="0"/>
    </radialGradient>
    <linearGradient id="d" x1="30.414%" x2="50%" y1="0%" y2="100%">
      <stop offset="0%" stop-color="#5B79A2"/>
      <stop offset="100%" stop-color="#2E4469"/>
    </linearGradient>
    <linearGradient id="e" x1="98.741%" x2="1.259%" y1="48.741%" y2="48.741%">
      <stop offset="0%" stop-color="#21C8F6"/>
      <stop offset="100%" stop-color="#637BFF"/>
    </linearGradient>
    <linearGradient id="f" x1="34.594%" x2="60.398%" y1="-29.447%" y2="100%">
      <stop offset="0%" stop-color="#5B79A2"/>
      <stop offset="100%" stop-color="#2E4469"/>
    </linearGradient>
    <linearGradient id="g" x1="15.98%" x2="50%" y1="-64.676%" y2="100%">
      <stop offset="0%" stop-color="#5B79A2"/>
      <stop offset="100%" stop-color="#2E4469"/>
    </linearGradient>
    <linearGradient id="h" x1="4.47%" x2="68.52%" y1="0%" y2="100%">
      <stop offset="0%" stop-color="#405A7C"/>
      <stop offset="100%" stop-color="#20304C"/>
    </linearGradient>
    <linearGradient id="i" x1="4.47%" x2="117.825%" y1="0%" y2="133.334%">
      <stop offset="0%" stop-color="#5B79A2"/>
      <stop offset="100%" stop-color="#2E4469"/>
    </linearGradient>
    <linearGradient id="j" x1="50%" x2="50%" y1="0%" y2="100%">
      <stop offset="0%" stop-color="#F44881" stop-opacity="0"/>
      <stop offset="100%" stop-color="#EC454F" stop-opacity=".215"/>
    </linearGradient>
    <linearGradient id="k" x1="12.205%" x2="108.596%" y1="0%" y2="100%">
      <stop offset="0%" stop-color="#1A273E"/>
      <stop offset="100%" stop-color="#2E4469"/>
    </linearGradient>
    <path id="l" d="M4.899 0h26.406a4.899 4.899 0 0 1 4.899 4.899V25.25a4.899 4.899 0 0 1-3.162 4.58c-3.13 1.187-7.903 1.78-14.318 1.78-6.802 0-11.984-.666-15.544-2A4.899 4.899 0 0 1 0 25.022V4.899A4.899 4.899 0 0 1 4.899 0z"/>
    <linearGradient id="n" x1="50%" x2="50%" y1="0%" y2="100%">
      <stop offset="0%" stop-color="#F44881" stop-opacity="0"/>
      <stop offset="100%" stop-color="#EC454F" stop-opacity=".412"/>
    </linearGradient>
    <path id="m" d="M4.899 0h26.406a4.899 4.899 0 0 1 4.899 4.899V25.25a4.899 4.899 0 0 1-3.162 4.58c-3.13 1.187-7.903 1.78-14.318 1.78-6.802 0-11.984-.666-15.544-2A4.899 4.899 0 0 1 0 25.022V4.899A4.899 4.899 0 0 1 4.899 0z"/>
    <linearGradient id="o" x1="-51.906%" x2="124.226%" y1="50%" y2="42.457%">
      <stop offset="0%" stop-color="#F65F95"/>
      <stop offset="100%" stop-color="#2E4469" stop-opacity=".125"/>
    </linearGradient>
    <linearGradient id="q" x1="50%" x2="50%" y1="0%" y2="100%">
      <stop offset="0%" stop-color="#F44881"/>
      <stop offset="100%" stop-color="#EC454F"/>
    </linearGradient>
    <linearGradient id="r" x1="-69.072%" x2="85.083%" y1="-39.599%" y2="55.347%">
      <stop offset="0%" stop-color="#F4487D" stop-opacity=".16"/>
      <stop offset="100%" stop-color="#FF6E9C"/>
    </linearGradient>
    <filter id="s" width="201.5%" height="201.5%" x="-50.8%" y="-50.8%" filterUnits="objectBoundingBox">
      <feGaussianBlur in="SourceGraphic" stdDeviation="2.2"/>
    </filter>
    <linearGradient id="t" x1="94.668%" x2="22.848%" y1="94.914%" y2="7.02%">
      <stop offset="0%" stop-color="#F4487D"/>
      <stop offset="100%" stop-color="#FF6E9C"/>
    </linearGradient>
    <circle id="u" cx="60" cy="60" r="60"/>
    <linearGradient id="v" x1="7.206%" x2="84.094%" y1="9.244%" y2="112.337%">
      <stop offset="0%" stop-color="#5B79A2"/>
      <stop offset="100%" stop-color="#2E4469"/>
    </linearGradient>
  </defs>
  <g fill="none" fill-rule="evenodd" transform="translate(1 1)">
    <g transform="translate(0 .333)">
      <mask id="b" fill="#fff">
        <use xlink:href="#a"/>
      </mask>
      <use fill="#24385A" xlink:href="#a"/>
      <path stroke="#4F6180" stroke-width=".7" d="M119.956 54.041C105.93 44.31 83.402 38 58 38 35.302 38 14.898 43.038.805 51.053m119.151-19.012C105.93 22.31 83.402 16 58 16 35.302 16 14.898 21.038.805 29.053m119.151 47.988C105.93 67.31 83.402 61 58 61 35.302 61 14.898 66.038.805 74.053m119.151 27.988C105.93 92.31 83.402 86 58 86 35.302 86 14.898 91.038.805 99.053" mask="url(#b)"/>
      <ellipse cx="60" cy="89.859" fill="url(#c)" mask="url(#b)" rx="64" ry="35.5"/>
      <g mask="url(#b)">
        <g transform="translate(22.032 45)">
          <path fill="url(#d)" d="M7.883 47.765h61.22a6.299 6.299 0 0 1 6.203 7.39l-4.684 26.61a12.597 12.597 0 0 1-12.406 10.413H18.77A12.597 12.597 0 0 1 6.364 81.765L1.68 55.155a6.299 6.299 0 0 1 6.203-7.39z"/>
          <path fill="url(#e)" d="M20.233 73.819h35.66a.956.956 0 0 1 0 1.912h-35.66a.956.956 0 0 1 0-1.912z"/>
          <path fill="url(#f)" d="M17.958 47.939H59.05a6.299 6.299 0 0 1 6.006 8.197l-.604 1.908a12.597 12.597 0 0 1-12.01 8.8H24.566a12.597 12.597 0 0 1-12.011-8.8l-.603-1.908a6.299 6.299 0 0 1 6.005-8.197z"/>
          <path fill="url(#g)" d="M8.16 47.939h60.69a6.299 6.299 0 0 1 5.78 8.803l-1.089 2.513a12.597 12.597 0 0 1-11.558 7.588H15.029c-5.02 0-9.562-2.981-11.559-7.588l-1.089-2.513a6.299 6.299 0 0 1 5.78-8.803z"/>
          <path fill="url(#h)" d="M30.156 50.718h17.059c1.525 0 2.998.553 4.146 1.557l2.788 2.438a2.28 2.28 0 0 1-1.5 3.994H24.722a2.28 2.28 0 0 1-1.5-3.994l2.788-2.438a6.299 6.299 0 0 1 4.146-1.557z"/>
          <path fill="url(#i)" d="M33.699 35.433h10.586a4.899 4.899 0 0 1 4.899 4.899V52.26a2.8 2.8 0 0 1-2.8 2.799H31.6a2.8 2.8 0 0 1-2.8-2.8V40.333a4.899 4.899 0 0 1 4.9-4.9z"/>
          <path fill="url(#i)" d="M26.27 0h23.643c5.798 0 10.498 4.7 10.498 10.498v23.6c0 6.957-5.64 12.597-12.597 12.597H28.369c-6.957 0-12.597-5.64-12.597-12.597v-23.6C15.772 4.7 20.472 0 26.27 0z"/>
          <path stroke="url(#j)" stroke-width=".756" d="M26.27.378c-5.59 0-10.12 4.53-10.12 10.12v23.6c0 6.748 5.47 12.219 12.22 12.219h19.444c6.748 0 12.219-5.47 12.219-12.22v-23.6c0-5.588-4.531-10.119-10.12-10.119H26.27z"/>
          <ellipse cx="25.064" cy="3.995" fill="#243552" rx="1.406" ry="1.39"/>
          <path fill="url(#k)" d="M59.583 32.041v3.474c0 6.957-5.64 12.597-12.597 12.597h-17.74c-6.958 0-12.598-5.64-12.598-12.597v-3.474c0 6.958 5.64 12.598 12.597 12.598h17.741c6.957 0 12.597-5.64 12.597-12.598z"/>
          <g transform="translate(20.153 6.948)">
            <use fill="#21314C" xlink:href="#l"/>
            <mask id="p" fill="#fff">
              <use xlink:href="#m"/>
            </mask>
            <path stroke="url(#n)" stroke-width=".756" d="M4.899.378a4.52 4.52 0 0 0-4.521 4.52v20.125a4.52 4.52 0 0 0 2.934 4.233c3.51 1.316 8.65 1.978 15.412 1.978 6.373 0 11.105-.589 14.184-1.756a4.52 4.52 0 0 0 2.918-4.227V4.899A4.52 4.52 0 0 0 31.305.378H4.899z"/>
            <ellipse cx="10.192" cy="15.905" fill="url(#o)" mask="url(#p)" rx="20.033" ry="19.801"/>
          </g>
          <path d="M42.872 4.933h-1.13a.558.558 0 0 1-.56-.556c0-.307.251-.556.56-.556h1.13c.309 0 .56.249.56.556a.558.558 0 0 1-.56.556zm2.108-1.529h-1.129a.558.558 0 0 1-.56-.555c0-.307.25-.556.56-.556h1.13c.309 0 .56.249.56.556a.558.558 0 0 1-.56.555zm5.763 1.529h-6.185a.56.56 0 0 1-.564-.556.56.56 0 0 1 .564-.556h6.183a.56.56 0 0 1 .563.556.56.56 0 0 1-.563.556h.002zm2.084-1.529H46.69c-.324 0-.586-.249-.586-.555 0-.307.262-.556.586-.556h6.138c.324 0 .586.249.586.556 0 .306-.262.555-.586.555z" fill="#243552"/>
        </g>
        <g fill="url(#q)" transform="translate(49 56)">
          <path d="M0 8.865c.215-.264.166-.6.24-.902C.965 4.981 2.83 2.89 5.485 1.48c4.425-2.347 9.7-1.646 13.386 1.717.128.116.317.198.338.484-.175-.102-.315-.17-.449-.251C14.394.748 9.327.988 5.235 4.07c-3.684 2.776-4.19 7.634-1.142 10.927 2.78 2.997 7.767 3.06 10.626.134a3.09 3.09 0 0 0 .166-4.127 3.19 3.19 0 0 0-4.242-.574c-.168.115-.316.258-.478.383-.486.382-1.076.351-1.467-.073-.391-.425-.36-1.04.102-1.495 2.047-2 5.487-1.905 7.49.203a5.122 5.122 0 0 1-.204 7.268C11.5 21.007 4.345 19.969 1.19 14.553a9.194 9.194 0 0 1-1.066-3c-.017-.092.015-.213-.124-.245V8.865z"/>
          <path d="M9.525 22.84a11.957 11.957 0 0 1-6.66-3.184 1.472 1.472 0 0 1-.138-.15.423.423 0 0 1-.04-.102c.205-.101.307.093.432.168 3.42 2.105 7.02 2.468 10.751.992a13.06 13.06 0 0 0 1.53-.717c1.603-.89 2.927-2.128 3.753-3.896 2.047-4.376-.88-9.566-5.696-10.15-2.325-.282-4.342.362-6.071 1.917-1.291 1.161-1.433 3.053-.32 4.338a3.184 3.184 0 0 0 4.45.35c.322-.269.635-.533 1.086-.451.401.053.733.336.847.722.142.442-.017.792-.33 1.1-1.863 1.832-4.994 1.928-7.047.217a5.128 5.128 0 0 1-1.856-3.865 5.126 5.126 0 0 1 1.733-3.921c4.4-3.911 10.792-3.266 14.267 1.443 2.66 3.61 2.115 9.02-1.211 12.053a12.725 12.725 0 0 1-2.189 1.605c-1.926 1.116-4.128 1.702-6.406 1.608a11.09 11.09 0 0 1-.885-.078z"/>
        </g>
      </g>
      <g mask="url(#b)">
        <path stroke="url(#r)" stroke-linejoin="round" stroke-width="2" d="M.336 54.872l69.057 3.857 33.916-18.48L80.33 6.17" transform="rotate(-174 62.96 39.818)"/>
        <g transform="rotate(-174 25.624 37.855)">
          <circle cx="6.5" cy="6.5" r="6.5" fill="#F1476C" filter="url(#s)"/>
          <g transform="translate(3 3)">
            <circle cx="3.5" cy="3.5" r="3.5" fill="#F1476C"/>
            <path fill="#FFF" fill-opacity=".2" d="M1.333 6A3.333 3.333 0 1 1 6 1.333 3.333 3.333 0 0 0 1.333 6z"/>
          </g>
        </g>
        <g transform="rotate(-174 31.402 10.589)">
          <circle cx="3.5" cy="3.5" r="3.5" fill="#F1476C"/>
          <path fill="#FFF" fill-opacity=".2" d="M1.333 6A3.333 3.333 0 1 1 6 1.333 3.333 3.333 0 0 0 1.333 6z"/>
        </g>
        <g transform="rotate(-174 13.982 18.698)">
          <circle cx="3.5" cy="3.5" r="3.5" fill="#F1476C"/>
          <path fill="#FFF" fill-opacity=".2" d="M1.333 6A3.333 3.333 0 1 1 6 1.333 3.333 3.333 0 0 0 1.333 6z"/>
        </g>
      </g>
      <use stroke="url(#t)" stroke-width="2" xlink:href="#u"/>
    </g>
    <g transform="translate(96 56)">
      <ellipse cx="8.667" cy="4.154" fill="url(#v)" rx="4.333" ry="4.154"/>
      <path stroke="#4C688F" stroke-linejoin="round" stroke-width="1.4" d="M4.333 9c2.394 0 4.334-1.86 4.334-4.154 0-2.294-1.94-4.154-4.334-4.154C1.94.692 0 2.552 0 4.846"/>
    </g>
    <path stroke="#4A668D" stroke-linejoin="round" stroke-width="1.4" d="M22 79c0 2.393 1.86 4.333 4.154 4.333 2.294 0 4.154-1.94 4.154-4.333"/>
    <ellipse cx="82.333" cy="32.154" fill="url(#v)" rx="4.333" ry="4.154"/>
    <path d="M22.901 44v3.697m0 6.22v3.697m6.906-6.906H26.11m-6.22 0h-3.697" stroke="#4C6990" stroke-linejoin="round" stroke-width="1.2"/>
  </g>
</svg>
