<svg xmlns="http://www.w3.org/2000/svg" xmlns:xlink="http://www.w3.org/1999/xlink" width="122" height="122">
  <defs>
    <circle id="a" cx="60" cy="60" r="60"/>
    <linearGradient id="b" x1="50%" x2="50%" y1="0%" y2="100%">
      <stop offset="0%" stop-color="#5B79A2"/>
      <stop offset="100%" stop-color="#2E4469"/>
    </linearGradient>
    <radialGradient id="d" cx="52.101%" cy="30.594%" r="256.183%" fx="52.101%" fy="30.594%" gradientTransform="matrix(-.19047 0 0 -.12688 .62 .345)">
      <stop offset="0%"/>
      <stop offset="100%" stop-opacity=".002"/>
    </radialGradient>
    <linearGradient id="e" x1="45.117%" x2="0%" y1="168.048%" y2="5.569%">
      <stop offset="0%" stop-color="#C4D6EB" stop-opacity=".676"/>
      <stop offset="100%" stop-color="#91ACD2" stop-opacity=".3"/>
    </linearGradient>
    <linearGradient id="f" x1="0%" y1="50%" y2="50%">
      <stop offset="0%" stop-color="#5B79A2"/>
      <stop offset="100%" stop-color="#2E4469"/>
    </linearGradient>
    <linearGradient id="g" x1="108.187%" x2="65.846%" y1="0%" y2="44.034%">
      <stop offset="0%" stop-color="#C4D6EB" stop-opacity=".676"/>
      <stop offset="100%" stop-color="#91ACD2" stop-opacity=".3"/>
    </linearGradient>
    <linearGradient id="h" x1="42.162%" x2="126.305%" y1="46.758%" y2="46.758%">
      <stop offset="0%" stop-color="#FFE474" stop-opacity=".131"/>
      <stop offset="100%" stop-color="#FFC540"/>
    </linearGradient>
    <linearGradient id="i" x1="50.613%" x2="91.898%" y1="49.683%" y2="46.758%">
      <stop offset="0%" stop-color="#FFE474" stop-opacity=".131"/>
      <stop offset="100%" stop-color="#FFC540"/>
    </linearGradient>
    <linearGradient id="j" x1="91.898%" x2="-60.196%" y1="46.758%" y2="46.758%">
      <stop offset="0%" stop-color="#FFE474" stop-opacity=".131"/>
      <stop offset="100%" stop-color="#FFC540"/>
    </linearGradient>
    <linearGradient id="k" x1="50.613%" x2="50.613%" y1="22.066%" y2="106.64%">
      <stop offset="0%" stop-color="#FFE474" stop-opacity=".131"/>
      <stop offset="100%" stop-color="#FFC540"/>
    </linearGradient>
    <linearGradient id="l" x1="356.292%" x2="0%" y1="-38.36%" y2="89.849%">
      <stop offset="0%" stop-color="#FFE474" stop-opacity=".131"/>
      <stop offset="100%" stop-color="#FFC540"/>
    </linearGradient>
    <filter id="m" width="192.3%" height="192.3%" x="-46.2%" y="-46.2%" filterUnits="objectBoundingBox">
      <feGaussianBlur in="SourceGraphic" stdDeviation="2"/>
    </filter>
    <linearGradient id="n" x1="88.081%" x2="26.195%" y1="89.849%" y2="4.032%">
      <stop offset="0%" stop-color="#FFE474" stop-opacity=".131"/>
      <stop offset="100%" stop-color="#FFC540"/>
    </linearGradient>
    <circle id="o" cx="60" cy="60" r="60"/>
  </defs>
  <g fill="none" fill-rule="evenodd" transform="translate(1 1)">
    <mask id="c" fill="#fff">
      <use xlink:href="#a"/>
    </mask>
    <use fill="#000" fill-opacity=".152" xlink:href="#a"/>
    <rect width="121" height="120" fill="url(#b)" mask="url(#c)" rx="1.4"/>
    <ellipse cx="59.08" cy="107.513" fill="url(#d)" mask="url(#c)" opacity=".298" rx="40.95" ry="7.8" transform="rotate(1 59.08 107.513)"/>
    <g mask="url(#c)">
      <path fill="#2E4469" fill-rule="nonzero" stroke="url(#e)" stroke-width=".72" d="M18.71 17.37l-1.354 1.38-1.391-1.417c-3.32-3.383-8.786-3.14-11.753.539A17.413 17.413 0 0 0 .36 28.862c.012 9.56 7.759 17.36 17.138 17.264 9.292-.095 16.787-7.803 16.787-17.286 0-4.003-1.34-7.797-3.755-10.847a7.863 7.863 0 0 0-11.82-.622z" transform="translate(43 23)"/>
      <path fill="#A1FFF6" fill-rule="nonzero" d="M63.682 35.37h2.033c4.705 0 8.52-3.885 8.52-8.679v-2.07H72.2c-4.705 0-8.52 3.885-8.52 8.679v2.07z"/>
      <path fill="url(#f)" fill-rule="nonzero" d="M5.341 28.977a16.115 16.115 0 0 1 3.59-10.197 7.451 7.451 0 0 1 3.655-2.461c-2.812-.844-5.995-.01-7.996 2.46A16.116 16.116 0 0 0 1 28.978C1.01 37.85 8.234 45.09 16.98 45a15.735 15.735 0 0 0 2.02-.15c-7.667-1.08-13.65-7.8-13.659-15.874z" opacity=".477" transform="translate(43 23)"/>
      <path fill="#00FFF6" fill-rule="nonzero" d="M68.436 33.3c0-3.824 2.428-7.067 5.798-8.224v-.455h-2.033c-4.705 0-8.52 3.885-8.52 8.679v2.07h2.034c.952 0 1.866-.16 2.72-.454V33.3h.001z"/>
      <path fill="#2E4469" stroke="url(#g)" stroke-width=".72" d="M17.537 19.76l1.68-1.711c.545-.555.795-1.38.662-1.942-.104-.437-.368-.51-.93-.067l-.583.458V15.22l2.4-2.407h1.69c5.153 0 9.349-4.274 9.349-9.53V.36h-2.862c-5.152 0-9.348 4.274-9.348 9.53v1.716l-1.229 1.253V7.138h-1.657v9.356l-.584-.464c-.57-.453-.844-.383-.954.05-.14.555.103 1.376.648 1.93l1.718 1.75z" transform="translate(43 23)"/>
      <path fill="#24385A" fill-rule="nonzero" stroke="url(#e)" stroke-width=".5" d="M8.288 73.718h53.619v-16.26H8.288L6.28 59.485v12.208l2.008 2.026z" transform="translate(26 23)"/>
      <g stroke-width=".7">
        <path stroke="url(#h)" d="M13.934 11.701H9V3.135h4.934v1.488h-3.118v1.88h2.9v1.49h-2.9V10.2h3.118v1.5zm6.843-2.379c0 .774-.278 1.383-.835 1.828-.556.446-1.33.668-2.323.668-.914 0-1.723-.172-2.426-.515V9.615c.578.258 1.068.44 1.468.545.4.106.767.158 1.099.158.398 0 .704-.076.917-.228.213-.153.32-.38.32-.68a.75.75 0 0 0-.142-.448 1.574 1.574 0 0 0-.413-.378c-.181-.121-.551-.314-1.11-.58-.523-.246-.916-.483-1.178-.71a2.662 2.662 0 0 1-.627-.79 2.257 2.257 0 0 1-.234-1.055c0-.758.257-1.353.77-1.787.514-.433 1.224-.65 2.13-.65.446 0 .87.052 1.275.158a8.76 8.76 0 0 1 1.268.445l-.586 1.412a8.573 8.573 0 0 0-1.133-.392 3.65 3.65 0 0 0-.882-.112c-.344 0-.608.08-.791.24a.792.792 0 0 0-.276.628c0 .16.037.3.112.419.074.119.192.234.354.345.162.112.546.312 1.152.6.8.384 1.35.767 1.646 1.152.297.385.445.857.445 1.415zm6.944 2.38h-5.989v-1.26l2.15-2.174c.638-.653 1.054-1.105 1.249-1.357.195-.252.336-.485.422-.7.086-.215.129-.438.129-.668 0-.344-.095-.6-.285-.768-.189-.168-.442-.252-.758-.252-.332 0-.655.077-.967.229a4.99 4.99 0 0 0-.979.65l-.984-1.166c.422-.359.771-.613 1.049-.761a3.85 3.85 0 0 1 .908-.343c.328-.08.695-.12 1.102-.12.535 0 1.007.097 1.418.293.41.195.728.468.955.82.226.352.34.754.34 1.207 0 .395-.07.765-.209 1.11a4.25 4.25 0 0 1-.644 1.064c-.291.363-.804.88-1.538 1.553l-1.102 1.037v.082h3.733V11.7zm6.802-4.284c0 1.496-.245 2.603-.735 3.322-.49.719-1.245 1.078-2.265 1.078-.988 0-1.733-.37-2.235-1.113-.502-.742-.753-1.838-.753-3.287 0-1.512.244-2.626.733-3.343C29.756 3.358 30.508 3 31.523 3c.989 0 1.736.375 2.242 1.125s.758 1.848.758 3.293zm-4.189 0c0 1.05.09 1.804.272 2.259.182.455.488.682.917.682.422 0 .727-.23.915-.691.187-.461.28-1.211.28-2.25 0-1.05-.094-1.806-.283-2.265-.19-.459-.494-.688-.912-.688-.425 0-.73.23-.914.688-.183.46-.275 1.214-.275 2.265zm9.574 4.283h-1.81V6.744l.017-.814.03-.89c-.301.3-.51.497-.627.59l-.985.792-.873-1.09 2.76-2.197h1.488V11.7zm5.49-5.472c.829 0 1.488.232 1.978.697.49.465.735 1.101.735 1.91 0 .957-.295 1.693-.884 2.209-.59.516-1.434.773-2.532.773-.953 0-1.722-.154-2.308-.463V9.791c.308.164.668.298 1.078.401.41.104.799.156 1.166.156 1.105 0 1.658-.453 1.658-1.36 0-.863-.572-1.295-1.717-1.295-.207 0-.435.02-.685.062-.25.04-.453.085-.61.132l-.72-.387.322-4.365h4.646V4.67h-3.058l-.158 1.682.205-.041c.238-.055.533-.082.884-.082z" transform="translate(32 81)"/>
        <path stroke="url(#i)" stroke-linecap="round" d="M.719 12.048h13.41m6.527-.039h11.266c1.824-.33 2.736-1.653 2.736-3.967" transform="translate(32 81)"/>
        <path stroke="url(#j)" stroke-linecap="round" d="M28.81 2.877h-4.373c-1.232.067-2.047.448-2.445 1.143" transform="translate(32 81)"/>
        <path stroke="url(#k)" stroke-linecap="round" d="M9.075.048v7.317" transform="translate(32 81)"/>
      </g>
      <path stroke="url(#i)" stroke-width=".7" d="M8.184 73.968L6.03 71.794V59.381l2.154-2.172h53.973v16.758z" transform="translate(26 23)"/>
      <path fill="#2E4469" stroke="url(#e)" stroke-width=".5" d="M66.088 56.935V51.38H5.777L.25 56.952v17.225l5.527 5.573h60.31v-5.556H8.162l-.178-.074-2.154-2.172-.073-.176V59.357l.073-.176 2.154-2.172.178-.074h57.927z" transform="translate(26 23)"/>
    </g>
    <g mask="url(#c)">
      <path stroke="url(#l)" stroke-width="2" d="M47.102 60.618L29.673 48.339l-7.64 42.248" transform="rotate(63 72.985 102.993)"/>
      <g transform="rotate(63 4.004 109.866)">
        <circle cx="3" cy="3" r="3" fill="#FAC446"/>
        <path fill="#FFF" fill-opacity=".2" d="M1.111 5A2.778 2.778 0 1 1 5 1.111 2.778 2.778 0 0 0 1.111 5z"/>
      </g>
      <g transform="rotate(63 23.268 101.707)">
        <circle cx="3.5" cy="3.5" r="3.5" fill="#FAC446"/>
        <path fill="#FFF" fill-opacity=".2" d="M1.333 6A3.333 3.333 0 1 1 6 1.333 3.333 3.333 0 0 0 1.333 6z"/>
      </g>
      <path fill="#FFF" fill-opacity=".2" d="M98.585 38.713a3.333 3.333 0 1 1 6.277 2.04 3.333 3.333 0 0 0-6.277-2.04z"/>
      <g transform="rotate(63 -2.237 73.732)">
        <circle cx="7" cy="7" r="6.5" fill="#C08D17" filter="url(#m)"/>
        <circle cx="7" cy="7" r="3" fill="#FAC446"/>
      </g>
      <path fill="#FFF" fill-opacity=".2" d="M58.662 50.985a2.857 2.857 0 1 1 5.38 1.748 2.857 2.857 0 0 0-5.38-1.748z"/>
    </g>
    <path stroke="url(#l)" stroke-width="2" d="M99 61l22.12 13.12" mask="url(#c)"/>
    <use stroke="url(#n)" stroke-width="2" xlink:href="#o"/>
  </g>
</svg>
