<svg xmlns="http://www.w3.org/2000/svg" width="90" height="72" viewBox="0 0 90 72">
  <g id="logo" fill="#7d97ad" fill-rule="evenodd">
    <path d="M45.913646 53.050333c.267182 0 .492802.10014.669735.29739.17694.197248.25472.43941.23097.71859-.01543.180256-.07481.351407-.17634.507386-.10153.15537-.23215.27736-.38889.36233-.15793.08496-.32833.12806-.50764.12806-.1799 0-.34318-.0431-.48567-.12806-.14249-.08497-.25233-.20696-.32714-.36233-.07481-.15598-.1045-.32653-.08906-.50739.02375-.27919.1425-.52135.35209-.71859.21019-.19725.45302-.29739.72199-.29739m.03503-.39632c-.41205 0-.77067.15051-1.06635.4473-.26837.26886-.41977.59174-.45124.95832-.03206.36961.07125.69795.30696.9741.23631.27675.56286.41695.97136.41695.40731 0 .75702-.1402 1.04023-.41696.28321-.27615.44293-.60449.4744-.97411.03147-.3684-.06531-.69189-.28796-.96075-.24462-.29496-.57711-.44487-.98738-.44487m28.9627.42351c.26718 0 .4928.10014.66974.29739.17693.19724.25471.43941.23096.71919-.01543.17965-.07481.3508-.17634.50678-.10153.15537-.23215.27736-.38889.36233-.15793.08497-.32833.12806-.50764.12806-.1799 0-.34259-.04309-.48568-.12806-.14249-.08497-.25234-.20696-.32715-.36233-.07481-.15598-.10449-.32652-.08906-.50678.02375-.27979.1425-.52195.35209-.7192.21018-.19725.45302-.29739.72198-.29739m.03503-.39632c-.41205 0-.77067.15051-1.06635.4473-.26778.26886-.42037.59174-.45124.95832-.03206.36961.07125.69796.30696.9741.23631.27675.56286.41695.97135.41695.4073 0 .75701-.1402 1.04023-.41695.28322-.27615.44293-.60449.4744-.9741.03147-.3684-.06531-.69189-.28796-.96076-.24462-.29496-.57711-.44487-.98738-.44487M50.4625 45.02731c-.339613.15234-1.493243.49646-1.7628.52681-.425115.046127-.873386.06069-.873386.06069h-4.99273s-.095.00789-.14903-.06433c-.05284-.07222-.03978-.164473-.03978-.164473l.51893-6.18268.53971-6.18208s.002377-.09286.06769-.16508c.066495-.071616.15971-.063726.15971-.063726h4.99273s.445896.01396.86329.0607c.26481.02974 1.359067.37447 1.67256.52681 2.18851 1.08214 3.39736 3.2106 3.181833 5.82339-.23215 2.61339-1.80496 4.74125-4.17872 5.82399m5.24982-11.78212c-1.144134-1.54279-2.811346-2.55877-4.85261-3.03884-.14606-.03641-.58602-.11713-1.02182-.14869-.38296-.03156-.79739-.03156-.79739-.03156l-4.718425.01518h-2.70091v.00304c-.18109.00971-.33902.16023-.35565.34898-.31527 3.71192-.5593 6.58386-.7487 8.81003-.19178 2.22679-.43937 5.09873-.75939 8.81064-.01603.18875.11637.33927.29568.34898v.00243h2.7009l4.715454.01517s.41443 0 .80274-.03096c.44174-.03216.89535-.11228 1.04735-.14869 2.1232-.48068 3.96497-1.49605 5.37331-3.03945 1.48316-1.62776 2.40345-3.74347 2.59819-5.95812.184656-2.21465-.37405-4.32976-1.57874-5.95812m6.06846 1.01422H60.0791c-.296273 0-.555736.2276-.579486.50374l-1.0533 12.30892c-.002374.03035-.000593.06252.00178.09529.0095.66094.569395 1.17742 1.27594 1.17742.707736 0 1.3555-.51648 1.479-1.17803.00831-.03216.015436-.06433.018405-.09468l1.05329-12.30891c.02375-.27614-.19831-.50374-.49399-.50374m-.71433-1.59874c.75642 0 1.41784-.57475 1.47899-1.28485.06056-.70949-.5023-1.28363-1.25932-1.28363-.75583 0-1.41785.57414-1.479 1.28363-.06056.71009.50349 1.28484 1.25931 1.28484m16.42145 12.35923c-.33903.15173-1.49087.49586-1.76043.5262-.42512.04613-.8722.06009-.8722.06009h-4.98679s-.09441.0085-.14844-.063722c-.05284-.07162-.03978-.16448-.03978-.16448l.51774-6.17418.53911-6.17479s.00297-.09225.06828-.164477c.0659-.072227.15912-.06373.15912-.06373h4.98679s.44471.01396.86151.06008c.26481.030344 1.35787.37447 1.67077.5262 2.18554 1.081525 3.39261 3.206954 3.17767 5.816705-.23156 2.609148-1.80259 4.73518-4.17338 5.8161m5.24329-11.76694c-1.14235-1.540962-2.80778-2.555123-4.84667-3.0352-.14547-.03641-.58484-.11653-1.02064-.14869-.38237-.03095-.7962-.03095-.7962-.03095l-4.71249.01518h-2.6973v.002425c-.1805.00971-.33903.16023-.35506.34837-.31528 3.70767-.55871 6.57597-.74811 8.79972-.19119 2.22314-.43877 5.09144-.7582 8.799102-.01604.188146.11637.33866.29568.34837l-.0006.00243h2.69735l4.71011.015175s.41383 0 .80154-.030955c.44114-.03216.89416-.11228 1.04557-.14869 2.12082-.479468 3.96022-1.49363 5.36678-3.0352 1.48137-1.625938 2.40047-3.73862 2.59522-5.95023.18406-2.21222-.37406-4.3249-1.57697-5.95084m6.12623.957292H87.1557c-.296274 0-.555737.2276-.579487.503747l-1.05328 12.30891c-.002378.03035-.000597.062516.00178.095897.0095.66033.56939 1.176813 1.27594 1.176813.707732 0 1.3555-.51648 1.478996-1.17802.00831-.03217.01543-.06434.0184-.09468l1.05329-12.30892c.02375-.27615-.19831-.50374-.49399-.50374m-.71432-1.59869c.75642 0 1.41784-.57475 1.479-1.28485.06056-.70949-.5023-1.28364-1.25932-1.28364-.75582 0-1.41784.57414-1.4784 1.28363-.06115.71009.5029 1.28484 1.25872 1.28484M43.84044 55.388c-.001187.01578-.00653.02974-.01603.041272-.008907.01153-.02375.021242-.04453.027918-.021375.006676-.0475.012745-.079562.0176-.03206.004856-.07303.007284-.12409.007284-.046312 0-.086092-.002428-.119342-.007283s-.05878-.01092-.07778-.0176c-.019-.00667-.031467-.01638-.038592-.02791-.007122-.01153-.01009-.02549-.008903-.04127l.28321-3.30953h-.00593l-1.60012 3.3065c-.00712.01396-.01662.02549-.0285.0352-.01128.00971-.0279.01821-.04928.02489-.02137.00729-.04631.01214-.0754.01457-.0285.00304-.06293.00486-.10212.00486-.04156 0-.07659-.00243-.10628-.00607-.02909-.00364-.05343-.0091-.07243-.01578-.019-.00728-.03325-.01578-.04394-.02549-.0095-.00971-.01603-.02063-.019-.03216l-1.03785-3.3065h-.00237l-.28383 3.3095c-.00118.01578-.00653.02974-.01543.04128-.0089.01153-.02375.02124-.04512.02792-.02079.00668-.0481.01275-.08075.0176-.03266.00486-.07481.00729-.12528.00729-.04869 0-.08906-.00243-.12112-.00728-.03266-.00485-.0576-.01092-.0766-.0176-.01841-.00667-.03088-.01638-.03681-.02791-.00653-.01153-.00891-.02549-.00713-.04127l.29865-3.49403c.00712-.08254.03443-.1408.08134-.17661.0469-.0352.09737-.05219.15199-.05219h.31171c.06412 0 .11993.00546.16684.017.0469.01214.08787.03096.12171.05584.03384.02549.06056.05766.08134.09711.02078.03945.038.08497.05166.13777l.8912 2.73417h.01485l1.34066-2.72506c.02731-.05887.05522-.10864.08491-.14991.02969-.04127.06116-.07404.09381-.09832.03384-.02427.06947-.04187.10866-.0528.0386-.01032.08313-.01578.13359-.01578h.32715c.03028 0 .05878.00425.08491.01275.02612.0085.0475.02246.06531.04127.01722.01882.03088.04188.04038.07041.0095.02853.01306.06312.0095.10439l-.29925 3.49403zm6.35856-2.17216c.188214-.15598.407896-.234878.651922-.234878.14784 0 .288556.03156.41799.094072.129435.061906.230964.144447.3034.245195.067092.09225.115185.21485.144872.36597h-1.83702c.083122-.20696.190588-.36476.318835-.47036m1.66424 1.06392c-.06709 0-.17278.08679-.17278.08679l-.01841.02731c-.11281.16265-.21612.28222-.30697.35565-.08966.07222-.19831.13109-.32181.17479-.12469.0437-.25234.06615-.37881.06615-.26243 0-.47737-.09286-.63946-.27615-.15616-.1754-.22978-.40178-.21909-.67368H52.131l.002373-.0352c.02731-.35687-.045125-.65972-.21612-.89885-.23987-.33866-.588988-.51042-1.038446-.51042-.436397 0-.804513.16751-1.093663.49889-.2274.25976-.35743.55958-.38593.89217-.03028.35262.065312.67368.283807.95347.21909.2804.54862.42302.97848.42302.19297 0 .37109-.02974.53021-.08801.15912-.05887.30696-.14566.43996-.25794.13181-.11228.25471-.26158.36337-.44366l.01247-.02003c.01366-.02549.02434-.0528.02672-.08254.0095-.10621-.06769-.19179-.171-.19179m9.69881.29915c-.09796.15112-.23155.2725-.3978.36051-.3313.17722-.70773.17965-1.00104-.00061-.14546-.08922-.25827-.21606-.33546-.37629-.07659-.16083-.10865-.33138-.09322-.50678.01484-.17661.07541-.34716.17872-.50617.10391-.15901.2375-.28404.39721-.37143.15913-.088.3319-.13231.51181-.13231.28025 0 .51121.09832.68636.29193.17456.19421.25056.4388.22622.7277-.01662.18996-.07422.36233-.17278.51345zm.64064-1.65446c-.01009-.09347-.08075-.16508-.17753-.16508-.09678 0-.1793.07161-.20543.16508h-.00891l-.01781.20696c-.10746-.14566-.23452-.25916-.3788-.33806-.16981-.09225-.36693-.13959-.58542-.13959-.3788 0-.71961.13716-1.01232.40845-.29271.27068-.45777.60145-.49042.98321-.03325.38903.07362.72405.31706.99595.24403.2719.5593.40967.93633.40967.21197 0 .41443-.04492.60086-.13231.16091-.07587.3129-.18451.45303-.32349l-.01543.18511h.00119c-.01009.11228.07184.20392.18168.20392.10984 0 .20662-.09165.21672-.20393l.19297-2.25592h-.00772zm7.14194 1.6981c-.09796.15112-.23156.2725-.3978.36051-.3313.17722-.70773.17964-1.00163-.00061-.14487-.08922-.25768-.21607-.33486-.37629-.07718-.16084-.10865-.33138-.09381-.50678.01544-.17661.07541-.34716.17931-.50617.10391-.15901.2375-.28404.39662-.37143.15972-.088.33249-.13231.5124-.13231.28025 0 .51121.09832.68636.29192.17456.19421.25056.4388.22622.72769-.01662.18996-.07422.36233-.17278.51345zm.64836-1.65446c-.01009-.09347-.07065-.16448-.18524-.16509-.09678-.00061-.18168.04187-.21434.16508l-.01781.20696c-.10746-.14566-.23452-.25916-.3788-.33806-.16981-.09225-.36693-.13959-.58602-.13959-.37821 0-.71901.13716-1.01173.40846-.29271.27068-.45777.60145-.49042.98321-.03325.38903.07303.72405.31706.99595.24403.2719.55871.40967.93633.40967.21197 0 .41443-.04492.60086-.13231.16091-.07587.3129-.18451.45302-.32349l-.01603.18511h.00119c-.0095.11228.07184.20392.18228.20392.10984 0 .20662-.09164.21612-.20392l.19356-2.25592zm10.91632-.07666l.00178-.00789c-.09678-.08922-.2179-.0959-.31408-.10925-.16268-.02246-.47083.06676-.67389.33259l.02256-.26583h-.00534c-.00297-.10439-.07956-.18633-.18465-.18633s-.19534.08193-.21671.18632h-.00475l-.21137 2.47441h.00416c.00179.1056.07897.18875.18466.18875.10628 0 .19772-.08315.2179-.18875h.00475l.06175-.72345c.038-.44427.08431-.74287.13716-.8861.06769-.18511.15615-.32288.26184-.40907.1045-.08497.20959-.12867.3129-.12867.04275 0 .09678.01456.15912.04187.02613.01578.05522.0267.08906.0267.10628 0 .20009-.08801.20959-.19725.00534-.06009-.01781-.11168-.0564-.14809m-31.66896-.17103l-.02612-.02428c-.00653-.00425-.01247-.00546-.019-.00911-.0095-.00485-.019-.0091-.02909-.01274-.08787-.04431-.17515-.07101-.25768-.07101-.12943 0-.25827.03884-.38415.11653-.09856.06008-.19712.14748-.2933.25915l.02612-.30893h-.00356c.00119-.108638-.07778-.19482-.18584-.19482s-.20187.086182-.21909.19482h-.00297l-.21968 2.56848c0 .00182-.00119.003642-.00178.005462 0 .00182.00119.00364.0006.00546 0 0-.01722.18875.18762.20574.18465.01457.22443-.211204.22443-.211204l.07066-.82298c.038-.44426.08431-.74287.13716-.8861.06828-.18511.15615-.32288.26184-.40906.1045-.084968.20959-.128666.3129-.128666.04334 0 .09737.014567.16031.04248l.026128.01153.00178-.00243c.02019.00728.04156.01335.06531.01335.10806 0 .20365-.089212.21256-.20028.00475-.05523-.01247-.105-.04513-.14141m15.67488 1.38105c.03028-.35626.01603-.6227-.04334-.79385-.05937-.172365-.164466-.31135-.312306-.41331-.14725-.10136-.32359-.152946-.524864-.152946-.19653 0-.385337.04552-.56049.13656-.14903.076474-.29153.18815-.42512.33199l.01722-.19847h-.00653c.01009-.11228-.07125-.20332-.181686-.20332-.10984 0-.20662.09104-.21671.20332l-.19296 2.25652h.00475c.00237.10196.07778.18268.18109.18268s.19237-.08072.21255-.18269h.00653l.06709-.78232c.0285-.33866.06472-.57293.10628-.69674.06472-.18875.18168-.34898.34733-.47825.16506-.127453.34674-.192393.54149-.192393.16921 0 .30399.041873.40077.1232.096183.08072.15675.204533.1799.367794.01603.09711.01128.29557-.01366.589922l-.08965 1.04572h.00653c0 .00243-.00119.00425-.00178.00668-.0095.10985.07065.19907.17812.19907.10806 0 .20246-.08922.21196-.19907.00059-.00243-.000593-.00425-.000593-.00668h.01009l.09796-1.14344zm13.8593-1.355125c-.113997 0-.21493.09468-.225026.21121 0 .00364.00178.00668.00119.00971l-.09144 1.07243c-.02731.31864-.06175.52924-.10272.62513-.05878.13838-.15496.25187-.28559.33684-.13181.08497-.28974.12867-.46905.12867-.18049 0-.33309-.04491-.4548-.13231-.12053-.087393-.19831-.207563-.23037-.35747-.02197-.107425-.02019-.30953.00416-.60085l.09262-1.079708c0-.00122.00059-.00182.00059-.00243.0101-.1141-.07303-.20696-.18465-.20696-.11162 0-.21077.09286-.22027.20696l-.09619 1.12038c-.031464.37204-.012464.65608.057596.84301.07006.18936.19059.33866.35743.44487.16565.105.38177.15841.64064.15841.260054 0 .483893-.05341.66617-.158408.183464-.10621.32834-.2543.431053-.440625.10153-.18511.16862-.46186.1995-.82298l.09797-1.14465c.01009-.11653-.07481-.21121-.18881-.21121m6.015854.56116c.19059-.15719.41206-.23731.65846-.23731.14962 0 .29212.03216.42274.09468s.23334.14627.30696.24823c.06709.09286.11577.21728.14546.36961h-1.85543c.08372-.20878.19178-.3684.32181-.475217m1.66068 1.097916c-.06769 0-.12766.038234-.16684.09225h-.00535c-.114.164474-.2179.28586-.30993.359294-.09085.07344-.20069.13291-.32537.17661-.12587.04431-.25471.06737-.38296.06737-.26481 0-.48212-.09407-.64599-.27918-.15793-.17722-.23215-.40602-.22146-.68096h2.34942l.002377-.0352c.027904-.361116-.04572-.666397-.2179-.908557-.24284-.3423-.59552-.51588-1.04973-.51588-.44115 0-.81342.16994-1.104946.50435-.23037.2628-.36099.56565-.39009.90128-.03028.35686.06591.68096.28678.96378.22146.28343.55396.42727.98857.42727.19475 0 .37524-.029735.53615-.08921.1609-.05948.30993-.14687.44411-.26037.13359-.11349.25768-.26401.367524-.44851l-.0006-.0006c.011873-.02367.01959-.04916.02197-.07647.0095-.10864-.06947-.19725-.17575-.19725m-2.8256-.36936c.03028-.356264.01603-.6227-.043348-.79385-.05997-.17237-.16447-.31135-.31231-.41271-.14784-.101964-.32418-.15355-.52486-.15355-.19712 0-.385334.04612-.56108.13655-.14903.07708-.291524.18815-.42452.33199l.01662-.19421c.000597-.003037.00238-.005465.00238-.0085 0-.00303-.001185-.00546-.001185-.00789l.002378-.02306h-.00475c-.00653-.10014-.08075-.17783-.18287-.17783-.102125 0-.19.077684-.21375.177826h-.00356l-.00178.01821c-.000593.00485-.00297.0085-.003562.01274 0 .00485.00178.008495.00178.01274l-.198302 2.32207v.00061c-.0095.11349.07303.20635.18406.20575.111625 0 .210185-.09225.219685-.20635h.00119l.07303-.85636c.0285-.33806.06471-.57293.10628-.69614.06471-.18875.18168-.34959.34733-.47825.16446-.12745.34674-.19239.54089-.19239.16921 0 .30399.04127.40137.1226.09618.08072.15674.20453.1799.3684.01603.0965.01128.29496-.01366.58931l-.09737 1.14222h.00118c-.0095.11349.07303.20574.18406.20574s.209-.09225.21909-.205744l.10569-1.23994zm5.73383-1.5823c.0095-.11046-.070658-.19968-.17812-.19968-.08194 0-.15615.050984-.19118.123814l-.00119-.00061-1.01648 1.9476-.70892-1.947603-.00356.00121c-.02791-.061904-.08669-.10621-.160907-.10621-.10866 0-.20425.09043-.21375.20089-.001185.015174.00297.02792.00475.04188l-.0089.00304.83182 2.29112-.428675.792634c-.019.029733-.033844.06251-.036813.09892-.0095.11289.07184.20453.18228.20453.09381 0 .17515-.06736.204247-.15719h.00119l1.720056-3.24276-.0095-.00364c.00535-.01578.01247-.03096.01366-.04795m-30.43992.70554c-.05997-.17176-.16506-.31074-.31231-.4121-.14784-.10196-.32418-.15355-.52486-.15355-.19534 0-.38296.04613-.5587.13656-.14902.07708-.29271.18875-.42689.33259l.09025-1.20412c.00831-.09407-.07897-.19361-.17634-.19361s-.18109.07222-.20721.166295l-.29628 3.39085s-.019593.22881.1799.22881c.2173 0 .22443-.22881.22443-.22881l.075996-.88428c.0291-.33987.06472-.57414.10628-.69674.06531-.18815.18169-.34898.34734-.47765.16506-.12806.34733-.19239.54149-.19239.16921 0 .3034.04127.39958.1226.09559.08133.15734.20514.183467.36779.014844.09711.0095.29557-.01603.58993l-.1045 1.18471c.019.17904.106875.21485.19.21485.17693 0 .21671-.20635.21671-.20635l.110434-1.29091c.03087-.35747.01662-.624517-.04275-.79445m-2.86662-.49877h-.39483s.07006-.7805.070655-.78657c.010092-.11531-.073625-.20938-.186435-.20938-.1134 0-.21255.09407-.22265.20939 0 .00243-.0659.78657-.0659.78657h-.45837l-.00059.00303h-.00059c-.09559 0-.17931.0789-.18762.17601-.00831.09711.06175.17601.15734.17601h.00059v.00303h.45896l-.18999 2.21283s-.00178.219094.17693.219094c.19415 0 .22562-.19239.22562-.19239l.19119-2.23953h.39483s.1514-.01517.16565-.17844c.013657-.15962-.13478-.17965-.13478-.17965m16.77484-.84095c-.067685 0-.12884.02427-.180495.07222-.05165.047948-.08075.10682-.086682.17479-.00594.06676.01366.12503.057.17297.04334.04795.10034.07222.16803.07222.06828 0 .12884-.02427.18049-.07222.05165-.04795.080746-.10621.08668-.172972.00594-.06798-.01306-.12685-.056992-.17479-.04334-.04795-.09975-.07223-.16803-.07223m.13199.96791c.00178-.05462-.013067-.10318-.04869-.14263-.03859-.04248-.088466-.06372-.14843-.06372-.05997 0-.11341.02124-.15912.063726-.04275.03945-.06591.0874-.07303.14202-.00178.00364-.00416.007284-.00475.010926l-.18881 2.19098c-.01188.14384-.0285.253083-.04869.32531-.02078.07283-.048094.13534-.084906.18207-.08965.115317-.20365.12624-.24284.131097 0 0-.28737.00364-.29568.01882-.00178.00364-.07837.05341-.08787.15901-.01247.14809.118154.18086.118154.18086s.280247.001213.30281 0c0 0 .16506 0 .28618-.055837.09559-.044303.1799-.099533.2464-.177825.06709-.0789.12053-.17782.15912-.29375.03919-.11713.067096-.27432.08372-.46732l.18881-2.19341c.00059-.00364-.00178-.00667-.002378-.01031m-57.17077-2.40892c5.368564-.17237 9.62625-4.53854 9.68859-9.96075l-.000593-4.66296h5.90767V40.91c-.11515 8.385175-7.24652 14.999375-15.59564 15.18934v-.00121C7.301356 56.04475.117146 49.3826.00018 40.90941v-9.26704c-.013658-.948008.590766-1.562816 1.50156-1.548857l23.97211-.000607v5.660123l-18.797103.00485c-.482707 0-.771857.30042-.771857.78899v3.77624c.06353 5.49443 4.39365 9.99959 9.883334 10.05543h.000594z"></path>
    <path d="M25.47397 30.092785L1.501856 30.094c-.010094-.000608-.020187-.000608-.03028-.000608-.894168 0-1.484936.611774-1.47128 1.548856v9.26704c.116967 8.473192 7.30118 15.135946 15.788644 15.189355v.001214c8.349122-.190572 15.480492-6.804772 15.595676-15.189353V35.75473H25.47694l.000594 4.663562c-.062936 5.421604-4.320027 9.787777-9.688593 9.960142h-.00119c-5.48909-.055837-9.81921-4.560387-9.88274-10.055428v-3.776248c0-.48857.28915-.788995.77127-.788995l18.7977-.004248v-5.66073zm-.432835.44305v4.77463L6.67627 35.31532c-.720202 0-1.20469.494638-1.20469 1.231438l.000593 3.78171c.032062 2.784543 1.1091 5.404004 3.0334 7.374668 1.92608 1.9737 4.496367 3.079506 7.240617 3.117742l.010093.00182.046312-.00182c5.602498-.179648 10.04246-4.74671 10.10777-10.403193l-.000593-4.219906h5.041417v4.70604c-.05344 3.89702-1.67731 7.57313-4.57296 10.351-2.85231 2.73659-6.59642 4.2982-10.54833 4.40076h-.0386c-4.02494-.02549-7.8397-1.55918-10.7407-4.31823C2.12765 48.55707.48775 44.85122.43313 40.90929v-9.27372c-.00475-.339875.09025-.620878.2749-.812664.18109-.187538.44471-.286466.763546-.286466h.03028l23.53928-.000607z"></path>
    <path d="M15.78882 50.378555c5.368566-.172365 9.62625-4.538537 9.688593-9.96075l-.000594-4.662955h5.90767v5.155167c-.11519 8.385188-7.24656 14.999388-15.59568 15.189353v-.00121C7.30135 56.04475.11714 49.3826.00017 40.90941v-9.26704c-.01365-.948008.59077-1.562816 1.50156-1.548857l23.972118-.000607v5.660123l-18.797103.00485c-.482707 0-.771857.30042-.771857.78899v3.77624c.06353 5.49443 4.39365 9.99959 9.88333 10.05543h.000593z"></path>
  </g>
</svg>
